<?xml version="1.0" encoding="utf-8"?>
<!-- Generator: Adobe Illustrator 15.0.2, SVG Export Plug-In . SVG Version: 6.00 Build 0)  -->
<!DOCTYPE svg PUBLIC "-//W3C//DTD SVG 1.1//EN" "http://www.w3.org/Graphics/SVG/1.1/DTD/svg11.dtd">
<svg version="1.1" id="Layer_1_copy" xmlns="http://www.w3.org/2000/svg" xmlns:xlink="http://www.w3.org/1999/xlink" x="0px"
	 y="0px" width="40px" height="40px" viewBox="0 0 40 40" enable-background="new 0 0 40 40" xml:space="preserve">
<ellipse fill="#FFFFFF" stroke="#FFFFFF" stroke-width="0.25" stroke-miterlimit="10" cx="20" cy="20.094" rx="15.833" ry="15.75"/>
<polyline fill="#34669A" stroke="#FFFFFF" stroke-miterlimit="10" points="31.352,34.262 34.592,31.143 39.5,36.381 36.258,39.5 "/>
<path fill="#34669A" stroke="#FFFFFF" stroke-miterlimit="10" d="M17.826,0.625c12.309-1.318,22.549,7.936,21.615,20.989
	c-0.668,9.359-8.108,16.979-17.426,17.8C9.593,40.51-0.421,30.945,0.567,18.089c0.6-7.811,5.6-13.538,11.562-16.121
	C13.781,1.253,15.849,0.836,17.826,0.625z M20.229,37.138c8.788-0.125,16.644-7.619,16.644-16.906
	c0-9.366-7.283-17.477-17.994-16.68C9.731,4.233,3.135,10.677,3.135,20.232C3.135,30.576,11.52,37.261,20.229,37.138z"/>
<path stroke="#FFFFFF" stroke-miterlimit="10" d="M18.104,3.108c10.792-1.157,19.769,6.957,18.951,18.402
	c-0.586,8.204-7.108,14.885-15.277,15.604c-10.89,0.96-19.67-7.426-18.804-18.696C3.5,11.571,7.883,6.549,13.11,4.285
	C14.558,3.658,16.371,3.293,18.104,3.108z M20.208,34.536c7.573-0.107,14.345-6.565,14.345-14.569
	c0-8.071-6.277-15.061-15.507-14.375C11.162,6.178,5.477,11.732,5.477,19.967C5.477,28.881,12.702,34.643,20.208,34.536z"/>
<path fill="#1D1D1B" d="M27.728,15.261c2.771,3.907,3.271,8.942-0.193,12.347c-3.463,3.404-8.534,2.877-12.348-0.019
	c-4.188-3.179-3.735-3.625,2.623-9.874C24.167,11.465,24.891,11.261,27.728,15.261z"/>
<path fill="#1D1D1B" d="M23.689,16.286c0.641,0.652,0.794,1.541,0.343,1.984l0,0c-0.452,0.444-1.337,0.275-1.979-0.377l-6.07-6.176
	c-0.642-0.651-0.795-1.54-0.343-1.984l0,0c0.451-0.444,1.337-0.275,1.979,0.376L23.689,16.286z"/>
<path fill="#1D1D1B" d="M18.048,21.831c0.641,0.652,0.794,1.541,0.342,1.985l0,0c-0.452,0.444-1.336,0.275-1.978-0.377l-6.071-6.175
	c-0.641-0.652-0.795-1.541-0.343-1.984l0,0c0.452-0.444,1.337-0.275,1.979,0.377L18.048,21.831z"/>
<rect x="26.469" y="24.003" transform="matrix(0.7131 -0.701 0.701 0.7131 -11.6666 27.9362)" fill="#1D1D1B" width="3.665" height="8.441"/>
</svg>
