<?xml version="1.0" encoding="utf-8"?>
<!-- Generator: Adobe Illustrator 15.0.2, SVG Export Plug-In . SVG Version: 6.00 Build 0)  -->
<!DOCTYPE svg PUBLIC "-//W3C//DTD SVG 1.1//EN" "http://www.w3.org/Graphics/SVG/1.1/DTD/svg11.dtd">
<svg version="1.1" id="Layer_1_copy" xmlns="http://www.w3.org/2000/svg" xmlns:xlink="http://www.w3.org/1999/xlink" x="0px"
	 y="0px" width="40px" height="40px" viewBox="0 0 40 40" enable-background="new 0 0 40 40" xml:space="preserve">
<ellipse fill="#FFFFFF" stroke="#FFFFFF" stroke-width="0.25" stroke-miterlimit="10" cx="20.083" cy="20.928" rx="15.833" ry="15.75"/>
<polyline fill="#34669A" stroke="#FFFFFF" stroke-miterlimit="10" points="31.352,34.262 34.592,31.143 39.5,36.381 36.258,39.5 "/>
<path fill="#34669A" stroke="#FFFFFF" stroke-miterlimit="10" d="M17.826,0.625c12.309-1.318,22.549,7.936,21.615,20.989
	c-0.668,9.358-8.108,16.979-17.426,17.8C9.593,40.51-0.421,30.945,0.567,18.089c0.6-7.811,5.6-13.538,11.562-16.121
	C13.781,1.253,15.849,0.836,17.826,0.625z M20.229,37.139c8.789-0.125,16.644-7.619,16.644-16.907
	c0-9.366-7.283-17.477-17.994-16.68C9.731,4.233,3.135,10.677,3.135,20.232C3.135,30.576,11.52,37.261,20.229,37.139z"/>
<path stroke="#FFFFFF" stroke-miterlimit="10" d="M18.104,3.108c10.792-1.157,19.769,6.957,18.951,18.402
	c-0.586,8.204-7.104,14.885-15.277,15.604C10.89,38.074,2.11,29.688,2.976,18.418C3.5,11.571,7.883,6.549,13.11,4.285
	C14.558,3.658,16.371,3.293,18.104,3.108z M20.208,34.536c7.573-0.106,14.345-6.565,14.345-14.569
	c0-8.071-6.277-15.061-15.507-14.375c-7.884,0.586-13.569,6.14-13.569,14.375C5.477,28.881,12.702,34.643,20.208,34.536z"/>
<g>
	<g>
		<path fill-rule="evenodd" clip-rule="evenodd" d="M26.883,25.484c0.104-2.221,0-4.527,0-6.75c0-1.1,0.203-2.288-0.097-3.303
			c0.312-0.48,0.068-1.519,0.146-2.234c-0.826,0-1.652,0-2.478,0c-0.113,0.243-0.017,0.696-0.049,1.02c-0.194,0-0.389,0-0.583,0
			c0-0.34,0-0.68,0-1.02c-0.875,0-1.748,0-2.623,0c-0.113,0.243-0.017,0.696-0.049,1.02c-0.194,0-0.388,0-0.582,0
			c0-0.34,0-0.68,0-1.02c-0.972,0-1.943,0-2.915,0c-0.113,0.243-0.017,0.696-0.049,1.02c-0.194,0-0.389,0-0.583,0
			c0-0.34,0-0.68,0-1.02c-0.794,0-1.587,0-2.38,0c-0.112,0.243-0.017,0.696-0.048,1.02c-0.259,0-0.518,0-0.777,0
			c0-0.69,0-1.392,0-2.186c0-1.306-0.293-2.525,0.923-2.671c1.272-0.153,2.674,0,4.08,0c2.648,0,5.25,0,8.112,0
			c1.231,0,3.316-0.176,3.787,0.243c0.518,0.459,0.293,2.598,0.293,3.691c0,2.854,0,5.018,0,7.868c0,1.346,0.32,3.936-0.535,4.273
			C29.499,25.822,27.99,25.248,26.883,25.484z M27.515,13.197c0,0.712,0,1.425,0,2.137c0.906,0,1.813,0,2.721,0
			c0-0.712,0-1.425,0-2.137C29.328,13.197,28.421,13.197,27.515,13.197z M27.515,15.917c0,0.842,0,1.684,0,2.525
			c0.906,0,1.813,0,2.721,0c0-0.842,0-1.684,0-2.525C29.328,15.917,28.421,15.917,27.515,15.917z M27.515,19.025
			c0,0.891,0,1.781,0,2.672c0.906,0,1.813,0,2.721,0c0-0.891,0-1.781,0-2.672C29.328,19.025,28.421,19.025,27.515,19.025z
			 M27.515,22.279c0,0.695,0,1.393,0,2.088c0.906,0,1.813,0,2.721,0c0-0.695,0-1.393,0-2.088
			C29.328,22.279,28.421,22.279,27.515,22.279z"/>
		<path fill-rule="evenodd" clip-rule="evenodd" d="M9.834,14.751c0.977-0.271,3.006-0.048,4.177-0.048c3.434,0,6.715,0,10.297,0
			c0.532,0,1.481-0.073,1.798,0.243c0.439,0.44,0.243,2.915,0.243,3.74c0,2.529,0,5.26,0,7.965c0,1.035,0.259,3.195-0.146,3.789
			c-0.474,0.693-2.857,0.389-3.982,0.389c-3.002,0-5.856,0-8.743,0c-1.016,0-3.527,0.293-4.08-0.293
			c-0.454-0.479-0.243-2.646-0.243-3.691c0-1.979,0-6.027,0-7.867C9.155,17.522,8.78,15.044,9.834,14.751z M9.932,18.491
			c0,0.729,0,1.458,0,2.185c0.826,0,1.651,0,2.478,0c0-0.727,0-1.456,0-2.185C11.583,18.491,10.757,18.491,9.932,18.491z
			 M12.992,18.491c0,0.729,0,1.458,0,2.185c0.972,0,1.943,0,2.915,0c0-0.727,0-1.456,0-2.185
			C14.935,18.491,13.963,18.491,12.992,18.491z M16.538,18.491c0,0.729,0,1.458,0,2.185c0.891,0,1.781,0,2.671,0
			c0-0.727,0-1.456,0-2.185C18.318,18.491,17.428,18.491,16.538,18.491z M19.792,18.491c0,0.729,0,1.458,0,2.185
			c0.825,0,1.651,0,2.478,0c0-0.727,0-1.456,0-2.185C21.443,18.491,20.617,18.491,19.792,18.491z M22.853,18.491
			c0,0.729,0,1.458,0,2.185c0.905,0,1.812,0,2.72,0c0-0.727,0-1.456,0-2.185C24.665,18.491,23.758,18.491,22.853,18.491z
			 M9.932,21.26c0,0.826,0,1.65,0,2.477c0.826,0,1.651,0,2.478,0c0-0.826,0-1.65,0-2.477C11.583,21.26,10.757,21.26,9.932,21.26z
			 M12.992,21.26c0,0.826,0,1.65,0,2.477c0.972,0,1.943,0,2.915,0c0-0.826,0-1.65,0-2.477C14.935,21.26,13.963,21.26,12.992,21.26z
			 M16.538,21.26c0,0.826,0,1.65,0,2.477c0.891,0,1.781,0,2.671,0c0-0.826,0-1.65,0-2.477C18.318,21.26,17.428,21.26,16.538,21.26z
			 M19.792,21.26c0,0.826,0,1.65,0,2.477c0.825,0,1.651,0,2.478,0c0-0.826,0-1.65,0-2.477C21.443,21.26,20.617,21.26,19.792,21.26z
			 M22.853,21.26c0,0.826,0,1.65,0,2.477c0.905,0,1.812,0,2.72,0c0-0.826,0-1.65,0-2.477C24.665,21.26,23.758,21.26,22.853,21.26z
			 M9.932,24.318c0,0.891,0,1.781,0,2.672c0.826,0,1.651,0,2.478,0c0-0.891,0-1.781,0-2.672
			C11.583,24.318,10.757,24.318,9.932,24.318z M12.992,24.318c0,0.891,0,1.781,0,2.672c0.972,0,1.943,0,2.915,0
			c0-0.891,0-1.781,0-2.672C14.935,24.318,13.963,24.318,12.992,24.318z M16.538,24.318c0,0.891,0,1.781,0,2.672
			c0.891,0,1.781,0,2.671,0c0-0.891,0-1.781,0-2.672C18.318,24.318,17.428,24.318,16.538,24.318z M19.792,24.318
			c0,0.891,0,1.781,0,2.672c0.825,0,1.651,0,2.478,0c0-0.891,0-1.781,0-2.672C21.443,24.318,20.617,24.318,19.792,24.318z
			 M22.853,24.318c0,0.891,0,1.781,0,2.672c0.905,0,1.812,0,2.72,0c0-0.891,0-1.781,0-2.672
			C24.665,24.318,23.758,24.318,22.853,24.318z M9.932,27.574c0,0.695,0,1.393,0,2.088c0.826,0,1.651,0,2.478,0
			c0-0.695,0-1.393,0-2.088C11.583,27.574,10.757,27.574,9.932,27.574z M12.992,27.574c0,0.695,0,1.393,0,2.088
			c0.972,0,1.943,0,2.915,0c0-0.695,0-1.393,0-2.088C14.935,27.574,13.963,27.574,12.992,27.574z M16.538,27.574
			c0,0.695,0,1.393,0,2.088c0.891,0,1.781,0,2.671,0c0-0.695,0-1.393,0-2.088C18.318,27.574,17.428,27.574,16.538,27.574z
			 M19.792,27.574c0,0.695,0,1.393,0,2.088c0.825,0,1.651,0,2.478,0c0-0.695,0-1.393,0-2.088
			C21.443,27.574,20.617,27.574,19.792,27.574z M22.853,27.574c0,0.695,0,1.393,0,2.088c0.905,0,1.812,0,2.72,0
			c0-0.695,0-1.393,0-2.088C24.665,27.574,23.758,27.574,22.853,27.574z"/>
	</g>
</g>
<rect x="12.875" y="21.25" fill="#0084C0" width="3" height="2.5"/>
<rect x="12.875" y="24.312" fill="#0084C0" width="3" height="2.812"/>
<rect x="16.375" y="24.312" fill="#0084C0" width="3" height="2.812"/>
<rect x="27.375" y="15.938" fill="#0084C0" width="3" height="2.5"/>
<rect x="27.375" y="18.812" fill="#0084C0" width="3" height="3"/>
</svg>
