<?xml version="1.0" encoding="utf-8"?>
<!-- Generator: Adobe Illustrator 15.0.2, SVG Export Plug-In . SVG Version: 6.00 Build 0)  -->
<!DOCTYPE svg PUBLIC "-//W3C//DTD SVG 1.1//EN" "http://www.w3.org/Graphics/SVG/1.1/DTD/svg11.dtd">
<svg version="1.1" id="Layer_1" xmlns="http://www.w3.org/2000/svg" xmlns:xlink="http://www.w3.org/1999/xlink" x="0px" y="0px"
	 width="854.278px" height="351.793px" viewBox="0 0 854.278 351.793" enable-background="new 0 0 854.278 351.793"
	 xml:space="preserve">
<g>
	<g>
		<path fill="#1F75A7" d="M463.631,142.728c0-83.874,124.425-83.874,124.425,0C588.056,226.775,463.631,226.775,463.631,142.728z
			 M572.98,142.728c0-65.159-94.099-64.985-94.099,0C478.881,207.886,572.98,207.886,572.98,142.728z M480.614,142.728
			c0,63.426,90.632,62.213,90.632,0C571.247,80.688,480.614,79.475,480.614,142.728z M556.344,142.728
			c0,44.017-60.827,44.017-60.827,0C495.517,99.058,556.344,99.058,556.344,142.728z"/>
		<path fill="#1F75A7" d="M692.166,203.207l-2.946-5.546c-36.738,19.583-92.712,1.04-92.712-54.934
			c0-83.874,124.425-83.874,124.425,0c0,14.383-3.639,26.341-9.704,35.872l12.477,20.622v3.985H692.166z M689.047,142.728
			c0-43.67-60.653-43.67-60.653,0C628.394,186.744,689.047,186.744,689.047,142.728z"/>
	</g>
	<g>
		<path fill="#1F75A7" d="M463.647,236.271c0-22.459,30.588-22.459,30.588,0C494.235,258.776,463.647,258.776,463.647,236.271z
			 M490.529,236.271c0-17.447-23.133-17.4-23.133,0C467.396,253.718,490.529,253.718,490.529,236.271z M467.822,236.271
			c0,16.984,22.281,16.658,22.281,0C490.103,219.659,467.822,219.335,467.822,236.271z M486.439,236.271
			c0,11.787-14.953,11.787-14.953,0C471.486,224.577,486.439,224.577,486.439,236.271z"/>
		<path fill="#1F75A7" d="M499.041,252.466c0-10.812,0-21.623,0-32.482c4.303,0,8.733,0,13.122,0
			c14.272,0.047,14.272,24.176,0,24.176h-5.496v8.307C504.11,252.466,501.554,252.466,499.041,252.466z M512.205,223.511h-9.628
			v25.846h0.469v-8.678h9.159C521.663,240.587,521.705,223.511,512.205,223.511z M512.205,223.929c8.819,0,8.947,16.193,0,16.193
			h-9.159v-16.193H512.205z M512.12,227.409c-1.789-0.047-3.707,0-5.453,0c0,2.645,0,6.635,0,9.279h5.453
			C516.294,236.688,516.55,227.454,512.12,227.409z"/>
		<path fill="#1F75A7" d="M545.468,227.409c-4.431,0-6.646,0-11.034,0v4.594h10.139c0,2.459,0,4.918,0,7.377h-10.139
			c0,1.902,0,3.758,0,5.707c4.388,0,6.944,0,11.417,0c0,2.414,0,4.92,0,7.379c-6.987,0-12.099,0-19.001,0
			c0-10.859,0-21.717,0-32.482c6.902,0,11.631,0,18.617,0C545.468,222.397,545.468,224.903,545.468,227.409z M530.43,249.032h12.525
			v-0.465h-12.057c0-4.223,0-8.445,0-12.668h10.821v-0.463h-10.821v-11.555h11.673v-0.465H530.43
			C530.43,231.909,530.43,240.446,530.43,249.032z"/>
		<path fill="#1F75A7" d="M559.501,236.503v15.963c-2.642,0-5.283,0-7.882,0v-32.621h2.77l15.081,16.055v-15.916
			c2.599,0,5.197,0,7.796,0v32.529h-2.727L559.501,236.503z M555.241,249.263h0.512v-21.947c2.982,3.109,5.964,6.311,8.861,9.42
			c2.854,3.062,5.708,6.078,8.648,9.188h0.341V223.14h-0.468v21.994c-2.982-3.201-5.922-6.404-8.947-9.467
			c-2.769-3.062-5.624-6.125-8.478-9.141h-0.469V249.263z"/>
		<path fill="#1F75A7" d="M605.67,252.466l-0.724-1.484c-9.032,5.242-22.792,0.277-22.792-14.711c0-22.459,30.588-22.459,30.588,0
			c0,3.852-0.895,7.053-2.386,9.605l3.067,5.521v1.068H605.67z M604.903,236.271c0-11.693-14.911-11.693-14.911,0
			C589.992,248.058,604.903,248.058,604.903,236.271z"/>
		<path fill="#1F75A7" d="M633.894,241.515v-21.531c2.428,0,4.984,0,7.37,0v21.67c0,7.146-5.751,11.275-11.886,11.275
			c-6.092,0-11.843-4.129-11.843-11.275v-21.67c2.386,0,4.899,0,7.285,0v21.531c0,2.645,2.343,3.943,4.559,3.943
			S633.894,244.159,633.894,241.515z"/>
		<path fill="#1F75A7" d="M663.728,248.382h-11.758l-1.747,4.084h-7.456v-1.207l13.42-31.693h3.28l13.462,31.693v1.207h-7.456
			L663.728,248.382z M657.806,232.698l-3.323,8.537h6.731L657.806,232.698z"/>
		<path fill="#1F75A7" d="M676.027,252.466v-32.482c2.556,0,5.112,0,7.753,0v12.297h0.554c7.626,0,7.243-6.217,7.243-12.297
			c2.599,0,5.197,0,7.839,0c0,6.637,0.17,12.762-5.751,16.891l8.094,14.293v1.299h-8.478l-6.561-12.576
			c-1.022,0.186-1.959,0.186-2.939,0.186v12.391C681.139,252.466,678.583,252.466,676.027,252.466z"/>
		<path fill="#1F75A7" d="M723.899,227.409c-4.431,0-6.646,0-11.034,0v4.594h10.139c0,2.459,0,4.918,0,7.377h-10.139
			c0,1.902,0,3.758,0,5.707c4.388,0,6.944,0,11.417,0c0,2.414,0,4.92,0,7.379c-6.987,0-12.099,0-19.001,0
			c0-10.859,0-21.717,0-32.482c6.902,0,11.631,0,18.617,0C723.899,222.397,723.899,224.903,723.899,227.409z"/>
	</g>
</g>
<g>
	<defs>
		<rect id="SVGID_1_" x="104.166" y="60.002" width="341.917" height="193.002"/>
	</defs>
	<clipPath id="SVGID_2_">
		<use xlink:href="#SVGID_1_"  overflow="visible"/>
	</clipPath>
	<g clip-path="url(#SVGID_2_)">
		<defs>
			<path id="SVGID_3_" d="M467.99,253.019C468.765,362,375.433,446.898,267.539,435.96
				c-99.823-10.11-166.204-99.138-155.436-193.844c10.116-88.991,86.236-159.428,175.785-162.255
				C383.827,76.842,467.262,151.506,467.99,253.019z"/>
		</defs>
		<clipPath id="SVGID_4_">
			<use xlink:href="#SVGID_3_"  overflow="visible"/>
		</clipPath>
		<path clip-path="url(#SVGID_4_)" fill="none" stroke="#1F75A7" stroke-width="12.5875" stroke-miterlimit="10" d="
			M306.353,193.002c-5.646,45.141-46.176,81.459-90.212,81.536c-43.606,0.095-74.845-35.431-70.107-79.763
			c4.792-44.782,44.451-82.116,88.954-83.019C279.947,110.848,312.039,147.398,306.353,193.002z"/>
		<path clip-path="url(#SVGID_4_)" fill="none" stroke="#1F75A7" stroke-width="18.8814" stroke-miterlimit="10" d="
			M259.053,188.031c-3.077,21.98-22.819,39.715-44.297,40.135c-21.63,0.411-37.564-16.857-35.429-39.086
			c2.169-22.781,22.41-41.804,44.984-41.964C246.752,146.969,262.207,165.512,259.053,188.031z"/>
		<path clip-path="url(#SVGID_4_)" fill="none" stroke="#1F75A7" stroke-width="7.6752" stroke-miterlimit="10" d="M359.269,199.948
			c-7.535,69.838-70.179,125.8-138.263,124.693c-66.253-1.099-112.378-56.126-104.594-122.665
			c7.742-66.243,66.25-121.372,132.278-123.522C316.493,76.225,366.75,130.447,359.269,199.948z"/>
		<path clip-path="url(#SVGID_4_)" fill="none" stroke="#1F75A7" stroke-width="3.8375" stroke-miterlimit="10" d="M420.921,217.711
			c-8.519,97.041-95.203,174.143-189.511,170.43c-90.164-3.563-151.205-80.238-140.03-169.772
			c10.954-87.768,88.078-160.5,175.74-164.117C358.667,50.45,429.243,122.722,420.921,217.711z"/>
	</g>
</g>
</svg>
