<?xml version="1.0" encoding="UTF-8" standalone="no"?>
<!-- Created with Inkscape (http://www.inkscape.org/) -->

<svg
   xmlns:dc="http://purl.org/dc/elements/1.1/"
   xmlns:cc="http://creativecommons.org/ns#"
   xmlns:rdf="http://www.w3.org/1999/02/22-rdf-syntax-ns#"
   xmlns:svg="http://www.w3.org/2000/svg"
   xmlns="http://www.w3.org/2000/svg"
   xmlns:sodipodi="http://sodipodi.sourceforge.net/DTD/sodipodi-0.dtd"
   xmlns:inkscape="http://www.inkscape.org/namespaces/inkscape"
   id="svg2"
   version="1.1"
   inkscape:version="0.91 r13725"
   xml:space="preserve"
   width="1067.85"
   height="439.73749"
   viewBox="0 0 1067.85 439.73749"
   sodipodi:docname="OQ-Logo-Plain-01.svg"><metadata
     id="metadata8"><rdf:RDF><cc:Work
         rdf:about=""><dc:format>image/svg+xml</dc:format><dc:type
           rdf:resource="http://purl.org/dc/dcmitype/StillImage" /><dc:title></dc:title></cc:Work></rdf:RDF></metadata><defs
     id="defs6"><clipPath
       clipPathUnits="userSpaceOnUse"
       id="clipPath20"><path
         d="m 724.789,780.41 3732.911,0 0,2107.11 -3732.911,0 0,-2107.11 z"
         id="path22"
         inkscape:connector-curvature="0" /></clipPath><clipPath
       clipPathUnits="userSpaceOnUse"
       id="clipPath26"><path
         d="M 4696.87,780.238 C 4705.32,-409.559 3686.36,-1336.45 2508.42,-1217.02 1418.6,-1106.66 693.883,-134.691 811.449,899.281 921.879,1870.84 1752.93,2639.84 2730.58,2670.7 3778.01,2703.66 4688.92,1888.52 4696.87,780.238 Z"
         id="path28"
         inkscape:connector-curvature="0" /></clipPath></defs><sodipodi:namedview
     pagecolor="#ffffff"
     bordercolor="#666666"
     borderopacity="1"
     objecttolerance="10"
     gridtolerance="10"
     guidetolerance="10"
     inkscape:pageopacity="0"
     inkscape:pageshadow="2"
     inkscape:window-width="1871"
     inkscape:window-height="1056"
     id="namedview4"
     showgrid="false"
     inkscape:zoom="0.97207733"
     inkscape:cx="536.86004"
     inkscape:cy="248.19688"
     inkscape:window-x="49"
     inkscape:window-y="24"
     inkscape:window-maximized="1"
     inkscape:current-layer="g10" /><g
     id="g10"
     inkscape:groupmode="layer"
     inkscape:label="ink_ext_XXXXXX"
     transform="matrix(1.25,0,0,-1.25,0,439.7375)"><g
       id="g3487"
       transform="matrix(1.1603855,0,0,1.1603855,-69.189584,-27.64414)"><g
         transform="matrix(0.09689138,0,0,0.09689138,25.581121,9.8872725)"
         id="g16"><g
           id="g18"
           clip-path="url(#clipPath20)"><g
             id="g24"
             clip-path="url(#clipPath26)"><path
               d="m 2932.18,1435.5 c -61.65,-492.828 -504.12,-889.359 -984.9,-890.199 -476.07,-1.02 -817.12,386.84 -765.4,870.799 52.31,488.94 485.3,896.53 971.16,906.38 490.86,9.92 841.22,-389.12 779.14,-886.98 z"
               style="fill:none;stroke:#3672ad;stroke-width:125.875;stroke-linecap:butt;stroke-linejoin:miter;stroke-miterlimit:10;stroke-dasharray:none;stroke-opacity:1"
               id="path30"
               inkscape:connector-curvature="0" /><path
               d="m 2415.78,1489.75 c -33.59,-239.96 -249.13,-433.59 -483.61,-438.18 -236.14,-4.48 -410.11,184.07 -386.8,426.73 23.68,248.71 244.65,456.4 491.11,458.14 245.01,1.62 413.73,-200.82 379.3,-446.69 z"
               style="fill:none;stroke:#3672ad;stroke-width:188.81399536;stroke-linecap:butt;stroke-linejoin:miter;stroke-miterlimit:10;stroke-dasharray:none;stroke-opacity:1"
               id="path32"
               inkscape:connector-curvature="0" /><path
               d="M 3509.89,1359.65 C 3427.62,597.191 2743.72,-13.7695 2000.4,-1.69922 1277.07,10.2813 773.496,611.07 858.492,1337.5 c 84.516,723.22 723.288,1325.09 1444.148,1348.57 740.24,24.33 1288.94,-567.63 1207.25,-1326.42 z"
               style="fill:none;stroke:#3672ad;stroke-width:76.75160217;stroke-linecap:butt;stroke-linejoin:miter;stroke-miterlimit:10;stroke-dasharray:none;stroke-opacity:1"
               id="path34"
               inkscape:connector-curvature="0" /><path
               d="M 4182.99,1165.72 C 4089.98,106.27 3143.62,-735.5 2113.99,-694.961 1129.62,-656.051 463.199,181.051 585.199,1158.54 704.797,2116.76 1546.8,2910.81 2503.86,2950.31 3503.33,2991.8 4273.84,2202.77 4182.99,1165.72 Z"
               style="fill:none;stroke:#3672ad;stroke-width:38.37549973;stroke-linecap:butt;stroke-linejoin:miter;stroke-miterlimit:10;stroke-dasharray:none;stroke-opacity:1"
               id="path36"
               inkscape:connector-curvature="0" /></g></g></g><path
         d="m 566.17278,203.09365 c 0,-46.71317 -64.55428,-46.71317 -64.55428,0 0,46.34595 64.55428,46.34595 64.55428,0 z m -80.37049,0 c 0,-67.31149 96.1867,-66.02416 96.1867,0 0,65.84161 -96.1867,67.13 -96.1867,0 z m 98.02589,0 c 0,69.15279 -99.86508,68.96813 -99.86508,0 0,-69.15068 99.86508,-69.15068 99.86508,0 z m -116.04849,0 c 0,89.01459 132.0483,89.01459 132.0483,0 0,-89.19714 -132.0483,-89.19714 -132.0483,0"
         style="fill:#3672ad;fill-opacity:1;fill-rule:nonzero;stroke:none"
         id="path38"
         inkscape:connector-curvature="0" /><path
         d="m 707.0074,203.09365 c 0,46.34595 -64.36962,46.34595 -64.36962,0 0,-46.71317 64.36962,-46.71317 64.36962,0 z m 3.31012,-64.18497 -3.12652,5.88585 c -38.98919,-20.78299 -98.39309,-1.10373 -98.39309,58.29912 0,89.01459 132.04936,89.01459 132.04936,0 0,-15.26329 -3.86198,-27.95404 -10.29863,-38.07013 l 13.24155,-21.88565 0,-4.22919 -33.47267,0"
         style="fill:#3672ad;fill-opacity:1;fill-rule:nonzero;stroke:none"
         id="path40"
         inkscape:connector-curvature="0" /><path
         d="m 491.98423,103.81969 c 0,-12.510326 -15.86927,-12.510326 -15.86927,0 0,12.40951 15.86927,12.40951 15.86927,0 z m -19.75779,0 c 0,-18.025783 23.64631,-17.679806 23.64631,0 0,17.62887 -23.64631,17.97272 -23.64631,0 z m 24.09841,0 c 0,18.5161 -24.55052,18.46622 -24.55052,0 0,-18.517154 24.55052,-18.517154 24.55052,0 z m -28.52924,0 c 0,23.83415 32.46339,23.83415 32.46339,0 0,-23.885093 -32.46339,-23.885093 -32.46339,0"
         style="fill:#3672ad;fill-opacity:1;fill-rule:nonzero;stroke:none"
         id="path42"
         inkscape:connector-curvature="0" /><path
         d="m 519.23888,113.22366 c -1.89863,0.0499 -3.93416,0 -5.78714,0 0,-2.80707 0,-7.04157 0,-9.84758 l 5.78714,0 c 4.43083,0 4.70145,9.79983 0,9.84758 z m 0.0902,3.69325 c 9.3594,0 9.49524,-17.185256 0,-17.185256 l -9.72024,0 0,17.185256 9.72024,0 z m 0,0.44361 -10.21798,0 0,-27.428696 0.49774,0 0,9.2087 9.72024,0 c 10.03755,0.0976 10.08213,18.219996 0,18.219996 z M 505.35843,86.631254 c 0,11.47559 0,22.947986 0,34.473446 4.56561,0 9.26813,0 13.92501,0 15.14654,-0.0499 15.14654,-25.657416 0,-25.657416 l -5.83171,0 0,-8.81603 c -2.71263,0 -5.42631,0 -8.0933,0"
         style="fill:#3672ad;fill-opacity:1;fill-rule:nonzero;stroke:none"
         id="path44"
         inkscape:connector-curvature="0" /><path
         d="m 538.67086,90.275674 13.29249,0 0,0.4935 -12.79476,0 c 0,4.48071 0,8.96248 0,13.444246 l 11.48302,0 0,0.49031 -11.48302,0 0,12.26306 12.38829,0 0,0.49349 -12.88602,0 c 0,-9.01236 0,-18.072476 0,-27.184606 z m 15.95948,22.947986 c -4.70146,0 -7.05219,0 -11.70907,0 l 0,-4.8755 10.76029,0 c 0,-2.60968 0,-5.21936 0,-7.82904 l -10.76029,0 c 0,-2.018546 0,-3.988276 0,-6.056706 4.65688,0 7.36951,0 12.1166,0 0,-2.56192 0,-5.22148 0,-7.83116 -7.41514,0 -12.84039,0 -20.16532,0 0,11.52547 0,23.047746 0,34.473446 7.32493,0 12.34371,0 19.75779,0 0,-2.56192 0,-5.22148 0,-7.88104"
         style="fill:#3672ad;fill-opacity:1;fill-rule:nonzero;stroke:none"
         id="path46"
         inkscape:connector-curvature="0" /><path
         d="m 565.0022,90.030524 0.54337,0 0,23.292896 c 3.16473,-3.30057 6.32839,-6.69771 9.40397,-9.99722 3.02889,-3.2507 6.05777,-6.450436 9.17792,-9.751016 l 0.3619,0 0,24.179066 -0.49774,0 0,-23.341716 c -3.16473,3.39715 -6.28382,6.797476 -9.49418,10.047106 -2.93868,3.25069 -5.96862,6.50032 -8.99751,9.70113 l -0.49773,0 0,-24.130246 z m 4.5221,13.541886 0,-16.941156 c -2.8039,0 -5.60779,0 -8.36499,0 l 0,34.619906 2.93868,0 16.00511,-17.03774 0,16.89128 c 2.75826,0 5.51652,0 8.27478,0 l 0,-34.523326 -2.8941,0 -15.95948,16.991036"
         style="fill:#3672ad;fill-opacity:1;fill-rule:nonzero;stroke:none"
         id="path48"
         inkscape:connector-curvature="0" /><path
         d="m 617.70732,103.81969 c 0,12.40951 -15.82469,12.40951 -15.82469,0 0,-12.510326 15.82469,-12.510326 15.82469,0 z m 0.814,-17.188436 -0.76836,1.576 c -9.58545,-5.564278 -24.18968,-0.29504 -24.18968,15.612436 0,23.83415 32.46339,23.83415 32.46339,0 0,-4.088036 -0.94984,-7.485186 -2.5322,-10.194626 l 3.25599,-5.8593 0,-1.13451 -8.22914,0"
         style="fill:#3672ad;fill-opacity:1;fill-rule:nonzero;stroke:none"
         id="path50"
         inkscape:connector-curvature="0" /><path
         d="m 648.4748,98.253294 0,22.851406 c 2.57678,0 5.29047,0 7.82161,0 l 0,-22.997856 c 0,-7.58495 -6.1034,-11.96696 -12.61434,-11.96696 -6.46529,0 -12.5687,4.38201 -12.5687,11.96696 l 0,22.997856 c 2.53221,0 5.1992,0 7.73034,0 l 0,-22.851406 c 0,-2.80601 2.48764,-4.18461 4.83836,-4.18461 2.35073,0 4.79273,1.3786 4.79273,4.18461"
         style="fill:#3672ad;fill-opacity:1;fill-rule:nonzero;stroke:none"
         id="path52"
         inkscape:connector-curvature="0" /><path
         d="m 673.85205,107.61057 -3.52662,-9.060116 7.14451,0 -3.61789,9.060116 z m 6.28488,-16.645066 -12.47955,0 -1.85299,-4.33425 -7.91288,0 0,1.28096 14.24233,33.636106 3.48099,0 14.28797,-33.636106 0,-1.28096 -7.91288,0 -1.85299,4.33425"
         style="fill:#3672ad;fill-opacity:1;fill-rule:nonzero;stroke:none"
         id="path54"
         inkscape:connector-curvature="0" /><path
         d="m 693.18958,86.631254 0,34.473446 c 2.71262,0 5.42524,0 8.22808,0 l 0,-13.05052 0.58794,0 c 8.0933,0 7.68683,6.59796 7.68683,13.05052 2.7572,0 5.51546,0 8.31935,0 0,-7.04369 0.18042,-13.54401 -6.10446,-17.92602 l 8.58997,-15.168826 0,-1.3786 -8.99644,0 -6.96304,13.34662 c -1.08569,-0.19634 -2.0801,-0.19634 -3.12015,-0.19634 l 0,-13.15028 c -2.80284,0 -5.51546,0 -8.22808,0"
         style="fill:#3672ad;fill-opacity:1;fill-rule:nonzero;stroke:none"
         id="path56"
         inkscape:connector-curvature="0" /><path
         d="m 743.99502,113.22366 c -4.70252,0 -7.05218,0 -11.71013,0 l 0,-4.8755 10.76135,0 c 0,-2.60968 0,-5.21936 0,-7.82904 l -10.76135,0 c 0,-2.018546 0,-3.988276 0,-6.056706 4.65795,0 7.36951,0 12.11766,0 0,-2.56192 0,-5.22148 0,-7.83116 -7.41514,0 -12.84039,0 -20.16532,0 0,11.52547 0,23.047746 0,34.473446 7.32493,0 12.34371,0 19.75779,0 0,-2.56192 0,-5.22148 0,-7.88104"
         style="fill:#3672ad;fill-opacity:1;fill-rule:nonzero;stroke:none"
         id="path58"
         inkscape:connector-curvature="0" /></g></g></svg>