<?xml version="1.0" encoding="UTF-8" standalone="no"?>
<!-- Created with Inkscape (http://www.inkscape.org/) -->

<svg
   xmlns:dc="http://purl.org/dc/elements/1.1/"
   xmlns:cc="http://creativecommons.org/ns#"
   xmlns:rdf="http://www.w3.org/1999/02/22-rdf-syntax-ns#"
   xmlns:svg="http://www.w3.org/2000/svg"
   xmlns="http://www.w3.org/2000/svg"
   xmlns:sodipodi="http://sodipodi.sourceforge.net/DTD/sodipodi-0.dtd"
   xmlns:inkscape="http://www.inkscape.org/namespaces/inkscape"
   id="svg2"
   version="1.1"
   inkscape:version="0.91 r13725"
   xml:space="preserve"
   width="1067.85"
   height="439.73749"
   viewBox="0 0 1067.85 439.73749"
   sodipodi:docname="oq_logo.svg"
   inkscape:export-filename="/home/paolo/projects/oq-irmt-qgis/svir/resources/oq_logo.svg.png"
   inkscape:export-xdpi="22.277241"
   inkscape:export-ydpi="22.277241"><metadata
     id="metadata8"><rdf:RDF><cc:Work
         rdf:about=""><dc:format>image/svg+xml</dc:format><dc:type
           rdf:resource="http://purl.org/dc/dcmitype/StillImage" /><dc:title /></cc:Work></rdf:RDF></metadata><defs
     id="defs6"><clipPath
       clipPathUnits="userSpaceOnUse"
       id="clipPath20"><path
         d="m 724.789,780.41 3732.911,0 0,2107.11 -3732.911,0 0,-2107.11 z"
         id="path22"
         inkscape:connector-curvature="0" /></clipPath><clipPath
       clipPathUnits="userSpaceOnUse"
       id="clipPath26"><path
         d="M 4696.87,780.238 C 4705.32,-409.559 3686.36,-1336.45 2508.42,-1217.02 1418.6,-1106.66 693.883,-134.691 811.449,899.281 921.879,1870.84 1752.93,2639.84 2730.58,2670.7 3778.01,2703.66 4688.92,1888.52 4696.87,780.238 Z"
         id="path28"
         inkscape:connector-curvature="0" /></clipPath></defs><sodipodi:namedview
     pagecolor="#ffffff"
     bordercolor="#666666"
     borderopacity="1"
     objecttolerance="10"
     gridtolerance="10"
     guidetolerance="10"
     inkscape:pageopacity="0"
     inkscape:pageshadow="2"
     inkscape:window-width="1871"
     inkscape:window-height="1056"
     id="namedview4"
     showgrid="false"
     inkscape:zoom="0.97207733"
     inkscape:cx="490.97644"
     inkscape:cy="205.56886"
     inkscape:window-x="49"
     inkscape:window-y="1104"
     inkscape:window-maximized="1"
     inkscape:current-layer="g10" /><g
     id="g10"
     inkscape:groupmode="layer"
     inkscape:label="ink_ext_XXXXXX"
     transform="matrix(1.25,0,0,-1.25,0,439.7375)"><g
       id="g16"
       transform="scale(0.1,0.1)"><g
         clip-path="url(#clipPath20)"
         id="g18"><g
           clip-path="url(#clipPath26)"
           id="g24"><path
             inkscape:connector-curvature="0"
             id="path30"
             style="fill:none;stroke:#3672ad;stroke-width:125.875;stroke-linecap:butt;stroke-linejoin:miter;stroke-miterlimit:10;stroke-dasharray:none;stroke-opacity:1"
             d="m 2932.18,1435.5 c -61.65,-492.828 -504.12,-889.359 -984.9,-890.199 -476.07,-1.02 -817.12,386.84 -765.4,870.799 52.31,488.94 485.3,896.53 971.16,906.38 490.86,9.92 841.22,-389.12 779.14,-886.98 z" /><path
             inkscape:connector-curvature="0"
             id="path32"
             style="fill:none;stroke:#3672ad;stroke-width:188.81399536;stroke-linecap:butt;stroke-linejoin:miter;stroke-miterlimit:10;stroke-dasharray:none;stroke-opacity:1"
             d="m 2415.78,1489.75 c -33.59,-239.96 -249.13,-433.59 -483.61,-438.18 -236.14,-4.48 -410.11,184.07 -386.8,426.73 23.68,248.71 244.65,456.4 491.11,458.14 245.01,1.62 413.73,-200.82 379.3,-446.69 z" /><path
             inkscape:connector-curvature="0"
             id="path34"
             style="fill:none;stroke:#3672ad;stroke-width:76.75160217;stroke-linecap:butt;stroke-linejoin:miter;stroke-miterlimit:10;stroke-dasharray:none;stroke-opacity:1"
             d="M 3509.89,1359.65 C 3427.62,597.191 2743.72,-13.7695 2000.4,-1.69922 1277.07,10.2813 773.496,611.07 858.492,1337.5 c 84.516,723.22 723.288,1325.09 1444.148,1348.57 740.24,24.33 1288.94,-567.63 1207.25,-1326.42 z" /><path
             inkscape:connector-curvature="0"
             id="path36"
             style="fill:none;stroke:#3672ad;stroke-width:38.37549973;stroke-linecap:butt;stroke-linejoin:miter;stroke-miterlimit:10;stroke-dasharray:none;stroke-opacity:1"
             d="M 4182.99,1165.72 C 4089.98,106.27 3143.62,-735.5 2113.99,-694.961 1129.62,-656.051 463.199,181.051 585.199,1158.54 704.797,2116.76 1546.8,2910.81 2503.86,2950.31 3503.33,2991.8 4273.84,2202.77 4182.99,1165.72 Z" /></g></g></g><path
       inkscape:connector-curvature="0"
       id="path38"
       style="fill:#3672ad;fill-opacity:1;fill-rule:nonzero;stroke:none"
       d="m 558.358,220.939 c 0,-44.016 -60.827,-44.016 -60.827,0 0,43.67 60.827,43.67 60.827,0 z m -75.73,0 c 0,-63.425 90.633,-62.212 90.633,0 0,62.04 -90.633,63.254 -90.633,0 z m 92.366,0 c 0,65.16 -94.099,64.986 -94.099,0 0,-65.158 94.099,-65.158 94.099,0 z m -109.348,0 c 0,83.875 124.424,83.875 124.424,0 0,-84.047 -124.424,-84.047 -124.424,0" /><path
       inkscape:connector-curvature="0"
       id="path40"
       style="fill:#3672ad;fill-opacity:1;fill-rule:nonzero;stroke:none"
       d="m 691.061,220.939 c 0,43.67 -60.653,43.67 -60.653,0 0,-44.016 60.653,-44.016 60.653,0 z m 3.119,-60.479 -2.946,5.546 c -36.738,-19.583 -92.712,-1.04 -92.712,54.933 0,83.875 124.425,83.875 124.425,0 0,-14.382 -3.639,-26.34 -9.704,-35.872 l 12.477,-20.622 0,-3.985 -31.54,0" /><path
       inkscape:connector-curvature="0"
       id="path42"
       style="fill:#3672ad;fill-opacity:1;fill-rule:nonzero;stroke:none"
       d="m 488.453,127.397 c 0,-11.788 -14.953,-11.788 -14.953,0 0,11.693 14.953,11.693 14.953,0 z m -18.617,0 c 0,-16.985 22.281,-16.659 22.281,0 0,16.611 -22.281,16.935 -22.281,0 z m 22.707,0 c 0,17.447 -23.133,17.4 -23.133,0 0,-17.448 23.133,-17.448 23.133,0 z m -26.882,0 c 0,22.458 30.589,22.458 30.589,0 0,-22.506 -30.589,-22.506 -30.589,0" /><path
       inkscape:connector-curvature="0"
       id="path44"
       style="fill:#3672ad;fill-opacity:1;fill-rule:nonzero;stroke:none"
       d="m 514.134,136.258 c -1.789,0.047 -3.707,0 -5.453,0 0,-2.645 0,-6.635 0,-9.279 l 5.453,0 c 4.175,0 4.43,9.234 0,9.279 z m 0.085,3.48 c 8.819,0 8.947,-16.193 0,-16.193 l -9.159,0 0,16.193 9.159,0 z m 0,0.418 -9.628,0 0,-25.845 0.469,0 0,8.677 9.159,0 c 9.458,0.092 9.5,17.168 0,17.168 z m -13.164,-28.955 c 0,10.813 0,21.623 0,32.483 4.302,0 8.733,0 13.121,0 14.272,-0.047 14.272,-24.176 0,-24.176 l -5.495,0 0,-8.307 c -2.556,0 -5.113,0 -7.626,0" /><path
       inkscape:connector-curvature="0"
       id="path46"
       style="fill:#3672ad;fill-opacity:1;fill-rule:nonzero;stroke:none"
       d="m 532.444,114.635 12.525,0 0,0.465 -12.056,0 c 0,4.222 0,8.445 0,12.668 l 10.82,0 0,0.462 -10.82,0 0,11.555 11.673,0 0,0.465 -12.142,0 c 0,-8.492 0,-17.029 0,-25.615 z m 15.038,21.623 c -4.43,0 -6.645,0 -11.033,0 l 0,-4.594 10.139,0 c 0,-2.459 0,-4.918 0,-7.377 l -10.139,0 c 0,-1.902 0,-3.758 0,-5.707 4.388,0 6.944,0 11.417,0 0,-2.414 0,-4.92 0,-7.379 -6.987,0 -12.099,0 -19.001,0 0,10.86 0,21.717 0,32.483 6.902,0 11.631,0 18.617,0 0,-2.414 0,-4.92 0,-7.426" /><path
       inkscape:connector-curvature="0"
       id="path48"
       style="fill:#3672ad;fill-opacity:1;fill-rule:nonzero;stroke:none"
       d="m 557.255,114.404 0.512,0 0,21.948 c 2.982,-3.11 5.963,-6.311 8.861,-9.42 2.854,-3.063 5.708,-6.078 8.648,-9.188 l 0.341,0 0,22.783 -0.469,0 0,-21.994 c -2.982,3.201 -5.921,6.405 -8.946,9.467 -2.769,3.063 -5.624,6.125 -8.478,9.141 l -0.469,0 0,-22.737 z m 4.261,12.76 0,-15.963 c -2.642,0 -5.284,0 -7.882,0 l 0,32.621 2.769,0 15.081,-16.054 0,15.916 c 2.599,0 5.198,0 7.797,0 l 0,-32.53 -2.727,0 -15.038,16.01" /><path
       inkscape:connector-curvature="0"
       id="path50"
       style="fill:#3672ad;fill-opacity:1;fill-rule:nonzero;stroke:none"
       d="m 606.917,127.397 c 0,11.693 -14.911,11.693 -14.911,0 0,-11.788 14.911,-11.788 14.911,0 z m 0.767,-16.196 -0.724,1.485 c -9.032,-5.243 -22.793,-0.278 -22.793,14.711 0,22.458 30.589,22.458 30.589,0 0,-3.852 -0.895,-7.053 -2.386,-9.606 l 3.068,-5.521 0,-1.069 -7.754,0" /><path
       inkscape:connector-curvature="0"
       id="path52"
       style="fill:#3672ad;fill-opacity:1;fill-rule:nonzero;stroke:none"
       d="m 635.908,122.152 0,21.532 c 2.428,0 4.985,0 7.37,0 l 0,-21.67 c 0,-7.147 -5.751,-11.276 -11.886,-11.276 -6.092,0 -11.843,4.129 -11.843,11.276 l 0,21.67 c 2.386,0 4.899,0 7.284,0 l 0,-21.532 c 0,-2.644 2.344,-3.943 4.559,-3.943 2.215,0 4.516,1.299 4.516,3.943" /><path
       inkscape:connector-curvature="0"
       id="path54"
       style="fill:#3672ad;fill-opacity:1;fill-rule:nonzero;stroke:none"
       d="m 659.82,130.969 -3.323,-8.537 6.732,0 -3.409,8.537 z m 5.922,-15.684 -11.759,0 -1.746,-4.084 -7.456,0 0,1.207 13.42,31.694 3.28,0 13.463,-31.694 0,-1.207 -7.456,0 -1.746,4.084" /><path
       inkscape:connector-curvature="0"
       id="path56"
       style="fill:#3672ad;fill-opacity:1;fill-rule:nonzero;stroke:none"
       d="m 678.041,111.201 0,32.483 c 2.556,0 5.112,0 7.753,0 l 0,-12.297 0.554,0 c 7.626,0 7.243,6.217 7.243,12.297 2.598,0 5.197,0 7.839,0 0,-6.637 0.17,-12.762 -5.752,-16.891 l 8.094,-14.293 0,-1.299 -8.477,0 -6.561,12.576 c -1.023,-0.185 -1.96,-0.185 -2.94,-0.185 l 0,-12.391 c -2.641,0 -5.197,0 -7.753,0" /><path
       inkscape:connector-curvature="0"
       id="path58"
       style="fill:#3672ad;fill-opacity:1;fill-rule:nonzero;stroke:none"
       d="m 725.913,136.258 c -4.431,0 -6.645,0 -11.034,0 l 0,-4.594 10.14,0 c 0,-2.459 0,-4.918 0,-7.377 l -10.14,0 c 0,-1.902 0,-3.758 0,-5.707 4.389,0 6.944,0 11.418,0 0,-2.414 0,-4.92 0,-7.379 -6.987,0 -12.099,0 -19.001,0 0,10.86 0,21.717 0,32.483 6.902,0 11.631,0 18.617,0 0,-2.414 0,-4.92 0,-7.426" /><path
       inkscape:connector-curvature="0"
       id="path60"
       style="fill:#3672ad;fill-opacity:1;fill-rule:nonzero;stroke:none"
       d="m 475.729,95.4059 -0.06,-1.9469 c 0,0 -2.398,0.2699 -3.537,0.2699 -3.446,0 -4.375,-1.4379 -4.375,-5.3949 0,-4.375 0.689,-5.9629 4.375,-5.9629 1.139,0 3.567,0.2699 3.567,0.2699 l 0.09,-1.948 c 0,0 -2.817,-0.42 -4.166,-0.42 -4.795,0 -6.173,2.1879 -6.173,8.061 0,5.4238 1.738,7.523 6.203,7.523 1.379,0 4.076,-0.4511 4.076,-0.4511" /><path
       inkscape:connector-curvature="0"
       id="path62"
       style="fill:#3672ad;fill-opacity:1;fill-rule:nonzero;stroke:none"
       d="m 481.873,87.5551 c -1.828,-0.1801 -2.577,-1.1082 -2.577,-2.6371 0,-1.7379 0.779,-2.6969 2.128,-2.6969 2.277,0 4.885,0.898 4.885,0.898 l 0,4.795 -4.436,-0.359 z M 488.526,83.6 c 0.06,-0.959 0.779,-1.2578 1.738,-1.3789 l -0.09,-1.9481 c -1.798,0 -2.757,0.3309 -3.536,1.1391 0,0 -2.697,-1.1391 -5.544,-1.1391 -2.607,0 -4.076,1.6489 -4.076,4.584 0,2.877 1.469,4.166 4.555,4.436 l 4.736,0.4492 0,1.2308 c 0,1.886 -0.959,2.7258 -2.608,2.7258 -2.187,0 -5.724,-0.3898 -5.724,-0.3898 l -0.09,1.9488 c 0,0 3.596,0.5992 5.904,0.5992 3.177,0 4.735,-1.5 4.735,-4.884 l 0,-7.373" /><path
       inkscape:connector-curvature="0"
       id="path64"
       style="fill:#3672ad;fill-opacity:1;fill-rule:nonzero;stroke:none"
       d="m 492.213,80.5719 2.21797,0 0,21.518 -2.21797,0 0,-21.518 z" /><path
       inkscape:connector-curvature="0"
       id="path66"
       style="fill:#3672ad;fill-opacity:1;fill-rule:nonzero;stroke:none"
       d="m 507.228,95.4059 -0.06,-1.9469 c 0,0 -2.397,0.2699 -3.537,0.2699 -3.446,0 -4.375,-1.4379 -4.375,-5.3949 0,-4.375 0.689,-5.9629 4.375,-5.9629 1.14,0 3.567,0.2699 3.567,0.2699 l 0.09,-1.948 c 0,0 -2.817,-0.42 -4.166,-0.42 -4.795,0 -6.173,2.1879 -6.173,8.061 0,5.4238 1.738,7.523 6.203,7.523 1.379,0 4.076,-0.4511 4.076,-0.4511" /><path
       inkscape:connector-curvature="0"
       id="path68"
       style="fill:#3672ad;fill-opacity:1;fill-rule:nonzero;stroke:none"
       d="m 521.164,95.557 0,-14.9851 -2.218,0 0,0.959 c 0,0 -2.337,-1.2579 -4.435,-1.2579 -4.196,0 -5.065,1.918 -5.065,7.461 l 0,7.823 2.218,0 0,-7.791 c 0,-4.1371 0.359,-5.4851 3.177,-5.4851 1.977,0 4.105,1.1101 4.105,1.1101 l 0,12.166 2.218,0" /><path
       inkscape:connector-curvature="0"
       id="path70"
       style="fill:#3672ad;fill-opacity:1;fill-rule:nonzero;stroke:none"
       d="m 524.821,80.5719 2.21797,0 0,21.518 -2.21797,0 0,-21.518 z" /><path
       inkscape:connector-curvature="0"
       id="path72"
       style="fill:#3672ad;fill-opacity:1;fill-rule:nonzero;stroke:none"
       d="m 534.381,87.5551 c -1.828,-0.1801 -2.577,-1.1082 -2.577,-2.6371 0,-1.7379 0.779,-2.6969 2.128,-2.6969 2.277,0 4.885,0.898 4.885,0.898 l 0,4.795 -4.436,-0.359 z M 541.034,83.6 c 0.06,-0.959 0.779,-1.2578 1.738,-1.3789 l -0.089,-1.9481 c -1.798,0 -2.757,0.3309 -3.537,1.1391 0,0 -2.697,-1.1391 -5.544,-1.1391 -2.607,0 -4.076,1.6489 -4.076,4.584 0,2.877 1.469,4.166 4.556,4.436 l 4.735,0.4492 0,1.2308 c 0,1.886 -0.959,2.7258 -2.608,2.7258 -2.187,0 -5.724,-0.3898 -5.724,-0.3898 l -0.089,1.9488 c 0,0 3.596,0.5992 5.903,0.5992 3.177,0 4.735,-1.5 4.735,-4.884 l 0,-7.373" /><path
       inkscape:connector-curvature="0"
       id="path74"
       style="fill:#3672ad;fill-opacity:1;fill-rule:nonzero;stroke:none"
       d="m 547.389,93.5199 0,-6.9828 c 0,-3.2672 0.179,-4.166 2.157,-4.166 0.839,0 2.667,0.1508 2.667,0.1508 l 0.12,-1.95 c 0,0 -1.978,-0.3297 -3.026,-0.3297 -3.087,0 -4.166,1.1699 -4.166,5.4848 l 0,7.7929 -2.128,0 0,2.0371 2.128,0 0,4.586 2.248,0 0,-4.586 4.735,0 0,-2.0371 -4.735,0" /><path
       inkscape:connector-curvature="0"
       id="path76"
       style="fill:#3672ad;fill-opacity:1;fill-rule:nonzero;stroke:none"
       d="m 563.153,88.934 c 0,3.5949 -1.169,4.916 -3.776,4.916 -2.578,0 -4.016,-1.4109 -4.016,-4.916 l 7.792,0 z m 1.648,-6.3539 0.06,-1.8281 c 0,0 -3.386,-0.479 -5.814,-0.479 -4.495,0 -5.964,2.6079 -5.964,7.702 0,5.693 2.488,7.882 6.294,7.882 3.956,0 6.023,-2.0992 6.023,-7.0129 l -0.12,-1.739 -9.919,0 c 0.03,-3.1461 0.989,-4.7942 3.956,-4.7942 2.247,0 5.484,0.2692 5.484,0.2692" /><path
       inkscape:connector-curvature="0"
       id="path78"
       style="fill:#3672ad;fill-opacity:1;fill-rule:nonzero;stroke:none"
       d="m 583.232,93.3398 c 0,0 -3.326,0.4782 -5.244,0.4782 -1.858,0 -3.237,-0.4782 -3.237,-2.2481 0,-1.4078 0.69,-1.8277 3.657,-2.2769 3.955,-0.6289 5.394,-1.4379 5.394,-4.3461 0,-3.5059 -2.218,-4.6739 -5.844,-4.6739 -1.918,0 -5.274,0.5692 -5.274,0.5692 l 0.12,1.9488 c 0,0 3.416,-0.5101 4.945,-0.5101 2.457,0 3.775,0.539 3.775,2.5761 0,1.559 -0.779,1.918 -3.775,2.3989 -3.657,0.5679 -5.275,1.289 -5.275,4.2242 0,3.2969 2.667,4.3769 5.394,4.3769 2.248,0 5.424,-0.5699 5.424,-0.5699 l -0.06,-1.9473" /><path
       inkscape:connector-curvature="0"
       id="path80"
       style="fill:#3672ad;fill-opacity:1;fill-rule:nonzero;stroke:none"
       d="m 586.59,80.5719 0,21.8771 2.248,0 0,-7.6111 c 0,0 2.517,1.0191 4.615,1.0191 4.135,0 5.065,-2.039 5.065,-7.4621 l 0,-7.823 -2.248,0 0,7.7929 c 0,3.9551 -0.45,5.4243 -3.147,5.4243 -2.008,0 -4.285,-0.8692 -4.285,-0.8692 l 0,-12.348 -2.248,0" /><path
       inkscape:connector-curvature="0"
       id="path82"
       style="fill:#3672ad;fill-opacity:1;fill-rule:nonzero;stroke:none"
       d="m 605.741,87.5551 c -1.828,-0.1801 -2.577,-1.1082 -2.577,-2.6371 0,-1.7379 0.779,-2.6969 2.128,-2.6969 2.277,0 4.885,0.898 4.885,0.898 l 0,4.795 -4.436,-0.359 z M 612.394,83.6 c 0.06,-0.959 0.779,-1.2578 1.738,-1.3789 l -0.09,-1.9481 c -1.798,0 -2.757,0.3309 -3.536,1.1391 0,0 -2.697,-1.1391 -5.544,-1.1391 -2.607,0 -4.076,1.6489 -4.076,4.584 0,2.877 1.469,4.166 4.555,4.436 l 4.736,0.4492 0,1.2308 c 0,1.886 -0.959,2.7258 -2.608,2.7258 -2.187,0 -5.724,-0.3898 -5.724,-0.3898 l -0.09,1.9488 c 0,0 3.597,0.5992 5.904,0.5992 3.177,0 4.735,-1.5 4.735,-4.884 l 0,-7.373" /><path
       inkscape:connector-curvature="0"
       id="path84"
       style="fill:#3672ad;fill-opacity:1;fill-rule:nonzero;stroke:none"
       d="m 616.171,95.557 2.248,0 0,-1.9789 c 0,0 2.308,1.7379 5.214,2.2789 l 0,-2.3371 c -2.817,-0.5398 -5.214,-2.0687 -5.214,-2.0687 l 0,-10.8793 -2.248,0 0,14.9851" /><path
       inkscape:connector-curvature="0"
       id="path86"
       style="fill:#3672ad;fill-opacity:1;fill-rule:nonzero;stroke:none"
       d="m 634.302,88.934 c 0,3.5949 -1.169,4.916 -3.776,4.916 -2.577,0 -4.016,-1.4109 -4.016,-4.916 l 7.792,0 z m 1.648,-6.3539 0.06,-1.8281 c 0,0 -3.386,-0.479 -5.814,-0.479 -4.495,0 -5.963,2.6079 -5.963,7.702 0,5.693 2.487,7.882 6.293,7.882 3.956,0 6.024,-2.0992 6.024,-7.0129 l -0.12,-1.739 -9.92,0 c 0.031,-3.1461 0.99,-4.7942 3.956,-4.7942 2.248,0 5.484,0.2692 5.484,0.2692" /><path
       inkscape:connector-curvature="0"
       id="path88"
       style="fill:#3672ad;fill-opacity:1;fill-rule:nonzero;stroke:none"
       d="m 653.543,88.934 c 0,3.5949 -1.168,4.916 -3.775,4.916 -2.578,0 -4.017,-1.4109 -4.017,-4.916 l 7.792,0 z m 1.648,-6.3539 0.06,-1.8281 c 0,0 -3.386,-0.479 -5.813,-0.479 -4.496,0 -5.964,2.6079 -5.964,7.702 0,5.693 2.487,7.882 6.294,7.882 3.955,0 6.023,-2.0992 6.023,-7.0129 l -0.12,-1.739 -9.92,0 c 0.031,-3.1461 0.99,-4.7942 3.957,-4.7942 2.247,0 5.483,0.2692 5.483,0.2692" /><path
       inkscape:connector-curvature="0"
       id="path90"
       style="fill:#3672ad;fill-opacity:1;fill-rule:nonzero;stroke:none"
       d="m 658.908,95.557 3.656,-5.873 3.657,5.873 2.457,0 -4.705,-7.4929 4.705,-7.4922 -2.457,0 -3.657,5.8441 -3.626,-5.8441 -2.457,0 4.675,7.4922 -4.675,7.4929 2.427,0" /><path
       inkscape:connector-curvature="0"
       id="path92"
       style="fill:#3672ad;fill-opacity:1;fill-rule:nonzero;stroke:none"
       d="m 672.815,92.6191 0,-10.0082 c 0.39,-0.089 1.948,-0.33 3.236,-0.33 3.297,0 4.376,1.6492 4.376,6.0242 0,4.0449 -1.289,5.484 -3.447,5.484 -1.978,0 -4.165,-1.17 -4.165,-1.17 z m -2.248,2.9379 2.248,0 0,-1.0492 c 0,0 2.248,1.3492 4.465,1.3492 3.776,0 5.424,-2.248 5.424,-7.6129 0,-5.873 -1.888,-7.9711 -6.533,-7.9711 -1.408,0 -2.937,0.2411 -3.356,0.3309 l 0,-6.684 -2.248,0 0,21.6371" /><path
       inkscape:connector-curvature="0"
       id="path94"
       style="fill:#3672ad;fill-opacity:1;fill-rule:nonzero;stroke:none"
       d="m 685.223,80.5719 2.2168,0 0,21.518 -2.2168,0 0,-21.518 z" /><path
       inkscape:connector-curvature="0"
       id="path96"
       style="fill:#3672ad;fill-opacity:1;fill-rule:nonzero;stroke:none"
       d="m 700.477,88.2148 c 0,3.9864 -1.199,5.6032 -4.076,5.6032 -3.176,0 -4.135,-1.4371 -4.135,-5.543 0,-4.1969 0.599,-5.9941 4.135,-5.9941 3.537,0 4.076,1.9793 4.076,5.9339 z m 2.307,0 c 0,-5.1859 -1.318,-7.9418 -6.383,-7.9418 -5.065,0 -6.443,2.518 -6.443,8.002 0,5.1551 1.708,7.582 6.443,7.582 4.525,0 6.383,-2.5172 6.383,-7.6422" /><path
       inkscape:connector-curvature="0"
       id="path98"
       style="fill:#3672ad;fill-opacity:1;fill-rule:nonzero;stroke:none"
       d="m 705.393,95.557 2.248,0 0,-1.9789 c 0,0 2.307,1.7379 5.214,2.2789 l 0,-2.3371 c -2.817,-0.5398 -5.214,-2.0687 -5.214,-2.0687 l 0,-10.8793 -2.248,0 0,14.9851" /><path
       inkscape:connector-curvature="0"
       id="path100"
       style="fill:#3672ad;fill-opacity:1;fill-rule:nonzero;stroke:none"
       d="m 723.524,88.934 c 0,3.5949 -1.169,4.916 -3.776,4.916 -2.577,0 -4.016,-1.4109 -4.016,-4.916 l 7.792,0 z m 1.648,-6.3539 0.06,-1.8281 c 0,0 -3.386,-0.479 -5.814,-0.479 -4.495,0 -5.963,2.6079 -5.963,7.702 0,5.693 2.487,7.882 6.293,7.882 3.956,0 6.024,-2.0992 6.024,-7.0129 l -0.12,-1.739 -9.92,0 c 0.031,-3.1461 0.99,-4.7942 3.956,-4.7942 2.248,0 5.484,0.2692 5.484,0.2692" /></g></svg>