<?xml version="1.0" encoding="utf-8"?>
<!-- Generator: Adobe Illustrator 15.0.2, SVG Export Plug-In . SVG Version: 6.00 Build 0)  -->
<!DOCTYPE svg PUBLIC "-//W3C//DTD SVG 1.1//EN" "http://www.w3.org/Graphics/SVG/1.1/DTD/svg11.dtd">
<svg version="1.1" id="Layer_1_copy" xmlns="http://www.w3.org/2000/svg" xmlns:xlink="http://www.w3.org/1999/xlink" x="0px"
	 y="0px" width="40px" height="40px" viewBox="0 0 40 40" enable-background="new 0 0 40 40" xml:space="preserve">
<ellipse fill="#FFFFFF" stroke="#FFFFFF" stroke-width="0.25" stroke-miterlimit="10" cx="19.178" cy="19.853" rx="15.552" ry="15.469"/>
<polyline fill="#34669A" stroke="#FFFFFF" stroke-miterlimit="10" points="31.352,34.262 34.592,31.143 39.5,36.381 36.258,39.5 "/>
<path fill="#34669A" stroke="#FFFFFF" stroke-miterlimit="10" d="M17.826,0.625c12.309-1.318,22.549,7.936,21.615,20.989
	c-0.668,9.358-8.108,16.979-17.426,17.8C9.593,40.51-0.421,30.945,0.567,18.089c0.6-7.811,5.6-13.538,11.562-16.121
	C13.781,1.253,15.849,0.836,17.826,0.625z M20.229,37.139c8.789-0.125,16.644-7.619,16.644-16.907
	c0-9.366-7.283-17.477-17.994-16.68C9.731,4.233,3.135,10.677,3.135,20.232C3.135,30.576,11.52,37.261,20.229,37.139z"/>
<path stroke="#FFFFFF" stroke-miterlimit="10" d="M18.104,3.108c10.792-1.157,19.769,6.957,18.951,18.402
	c-0.586,8.204-7.104,14.885-15.277,15.604C10.89,38.074,2.11,29.688,2.976,18.418C3.5,11.571,7.883,6.549,13.11,4.285
	C14.558,3.658,16.371,3.293,18.104,3.108z M20.208,34.536c7.573-0.106,14.345-6.565,14.345-14.569
	c0-8.071-6.277-15.061-15.507-14.375c-7.884,0.586-13.569,6.14-13.569,14.375C5.477,28.881,12.702,34.643,20.208,34.536z"/>
<g>
	<path fill="#34669A" d="M13.614,14.26c-0.369-0.36-1.017-0.245-1.445,0.258l-5.904,6.924c-0.43,0.505-0.477,1.203-0.107,1.562l0,0
		c0.367,0.36,1.015,0.245,1.444-0.258l5.905-6.925C13.936,15.318,13.983,14.62,13.614,14.26L13.614,14.26z"/>
	<path fill="#34669A" d="M12.669,14.182c-0.447,0.238-0.63,0.819-0.408,1.298l3.071,6.593c0.223,0.479,0.766,0.674,1.213,0.436l0,0
		c0.448-0.237,0.628-0.818,0.406-1.298l-3.069-6.593C13.66,14.138,13.117,13.944,12.669,14.182L12.669,14.182z"/>
	<path fill="#34669A" d="M21.38,7.189c-0.464-0.193-1.101,0.366-1.421,1.25l-4.417,12.168c-0.322,0.884-0.203,1.755,0.262,1.949l0,0
		c0.467,0.193,1.104-0.364,1.425-1.249l4.415-12.17C21.966,8.255,21.848,7.383,21.38,7.189L21.38,7.189z"/>
	<path fill="#34669A" d="M21.107,7.156c-0.495,0.064-0.772,1.209-0.618,2.56l2.121,18.595c0.152,1.351,0.68,2.39,1.177,2.324l0,0
		c0.496-0.061,0.773-1.206,0.618-2.561L22.286,9.479C22.132,8.132,21.605,7.091,21.107,7.156L21.107,7.156z"/>
	<path fill="#34669A" d="M29.823,16.61c-0.451-0.229-1.107,0.244-1.464,1.056l-4.93,11.167c-0.358,0.811-0.281,1.653,0.171,1.88l0,0
		c0.451,0.229,1.108-0.243,1.467-1.055l4.928-11.168C30.353,17.68,30.276,16.839,29.823,16.61L29.823,16.61z"/>
	<path fill="#34669A" d="M29.07,16.654c-0.445,0.238-0.629,0.818-0.405,1.297l3.071,6.593c0.222,0.479,0.766,0.672,1.211,0.435l0,0
		c0.449-0.235,0.632-0.818,0.408-1.296l-3.07-6.594C30.062,16.611,29.52,16.417,29.07,16.654L29.07,16.654z"/>
</g>
</svg>
