<?xml version="1.0" encoding="utf-8"?>
<!-- Generator: Adobe Illustrator 15.0.2, SVG Export Plug-In . SVG Version: 6.00 Build 0)  -->
<!DOCTYPE svg PUBLIC "-//W3C//DTD SVG 1.1//EN" "http://www.w3.org/Graphics/SVG/1.1/DTD/svg11.dtd">
<svg version="1.1" id="Layer_1_copy" xmlns="http://www.w3.org/2000/svg" xmlns:xlink="http://www.w3.org/1999/xlink" x="0px"
	 y="0px" width="40px" height="40px" viewBox="0 0 40 40" enable-background="new 0 0 40 40" xml:space="preserve">
<ellipse fill="#FFFFFF" stroke="#FFFFFF" stroke-width="0.25" stroke-miterlimit="10" cx="20" cy="20.094" rx="15.833" ry="15.75"/>
<polyline fill="#34669A" stroke="#FFFFFF" stroke-miterlimit="10" points="31.352,34.262 34.592,31.143 39.5,36.381 36.258,39.5 "/>
<path fill="#34669A" stroke="#FFFFFF" stroke-miterlimit="10" d="M17.826,0.625c12.309-1.318,22.549,7.936,21.615,20.989
	c-0.668,9.358-8.108,16.979-17.426,17.8C9.593,40.51-0.421,30.945,0.567,18.089c0.6-7.811,5.6-13.538,11.562-16.121
	C13.781,1.253,15.849,0.836,17.826,0.625z M20.229,37.139c8.789-0.125,16.644-7.619,16.644-16.907
	c0-9.366-7.283-17.477-17.994-16.68C9.731,4.233,3.135,10.677,3.135,20.232C3.135,30.576,11.52,37.261,20.229,37.139z"/>
<path stroke="#FFFFFF" stroke-miterlimit="10" d="M18.104,3.108c10.792-1.157,19.769,6.957,18.951,18.402
	c-0.586,8.204-7.105,14.885-15.277,15.604C10.89,38.074,2.11,29.688,2.976,18.418C3.5,11.571,7.883,6.549,13.11,4.285
	C14.558,3.658,16.371,3.293,18.104,3.108z M20.208,34.536c7.573-0.106,14.345-6.565,14.345-14.569
	c0-8.071-6.277-15.061-15.507-14.375c-7.884,0.586-13.569,6.14-13.569,14.375C5.477,28.881,12.702,34.643,20.208,34.536z"/>
<path id="path3796" inkscape:connector-curvature="0" sodipodi:nodetypes="ccccccc" fill="none" stroke="#1B75A5" stroke-width="1.1" stroke-linecap="round" stroke-linejoin="round" stroke-opacity="0.6" d="
	M6.08,22.056l6.688-8.121l3.184,7.962l4.777-13.375l3.662,20.063l4.459-13.694l5.095,6.528"/>
</svg>
