<?xml version="1.0" encoding="utf-8"?>
<!-- Generator: Adobe Illustrator 15.0.2, SVG Export Plug-In . SVG Version: 6.00 Build 0)  -->
<!DOCTYPE svg PUBLIC "-//W3C//DTD SVG 1.1//EN" "http://www.w3.org/Graphics/SVG/1.1/DTD/svg11.dtd">
<svg version="1.1" id="Layer_1_copy" xmlns="http://www.w3.org/2000/svg" xmlns:xlink="http://www.w3.org/1999/xlink" x="0px"
	 y="0px" width="40px" height="40px" viewBox="0 0 40 40" enable-background="new 0 0 40 40" xml:space="preserve">
<ellipse fill="#FFFFFF" stroke="#FFFFFF" stroke-width="0.25" stroke-miterlimit="10" cx="20" cy="20.094" rx="15.833" ry="15.75"/>
<polyline fill="#34669A" stroke="#FFFFFF" stroke-miterlimit="10" points="31.352,34.262 34.592,31.143 39.5,36.381 36.258,39.5 "/>
<path fill="#34669A" stroke="#FFFFFF" stroke-miterlimit="10" d="M17.826,0.625c12.309-1.318,22.549,7.936,21.615,20.989
	c-0.668,9.358-8.108,16.979-17.426,17.8C9.593,40.51-0.421,30.945,0.567,18.089c0.6-7.811,5.6-13.538,11.562-16.121
	C13.781,1.253,15.849,0.836,17.826,0.625z M20.229,37.139c8.789-0.125,16.644-7.619,16.644-16.907
	c0-9.366-7.283-17.477-17.994-16.68C9.731,4.233,3.135,10.677,3.135,20.232C3.135,30.576,11.52,37.261,20.229,37.139z"/>
<rect x="-53.964" y="-6.082" fill="none" width="28.164" height="28.164"/>
<rect x="-82.126" y="-6.082" fill="none" width="28.162" height="28.164"/>
<rect x="-110.29" y="-6.082" fill="none" width="28.164" height="28.164"/>
<path stroke="#FFFFFF" stroke-miterlimit="10" d="M18.104,3.108c10.792-1.157,19.769,6.957,18.951,18.402
	c-0.586,8.204-7.105,14.885-15.277,15.604C10.89,38.074,2.11,29.688,2.976,18.418C3.5,11.571,7.883,6.549,13.11,4.285
	C14.558,3.658,16.371,3.293,18.104,3.108z M20.208,34.536c7.573-0.106,14.345-6.565,14.345-14.569
	c0-8.071-6.277-15.061-15.507-14.375c-7.884,0.586-13.569,6.14-13.569,14.375C5.477,28.881,12.702,34.643,20.208,34.536z"/>
<g>
	<path fill="#34669A" d="M15.172,21.374c-0.076-11.204,12.934-11.001,14.504-9.992c0.564,0.52,2.188,2.746,2.188,2.882
		s-3.057,0.39-4.947,0.401c-2.504,0.015-5.466,0.802-6.925,2.559c-0.946,1.139-1.961,2.106-2.512,3.565
		c-1.394,3.694-1.391,8.059-1.391,8.059S15.18,22.437,15.172,21.374z"/>
	<g>
		<polygon fill="#FFFFFF" points="27.562,14.967 27.019,10.706 28.315,10.475 28.858,14.735 		"/>
	</g>
	<g>
		<polygon fill="#FFFFFF" points="24.751,15.385 24.021,10.956 25.308,10.657 26.04,15.088 		"/>
	</g>
	<g>
		<polygon fill="#FFFFFF" points="22.249,15.944 21.322,11.778 22.591,11.382 23.519,15.55 		"/>
	</g>
	<g>
		<polygon fill="#FFFFFF" points="20.111,12.476 20.994,16.409 19.787,17.629 18.842,13.29 		"/>
	</g>
	<rect x="13.291" y="10.885" fill="#34669A" width="3.645" height="19.05"/>
	<g>
		<polygon fill="#FFFFFF" points="17.615,14.265 18.725,18.744 18.042,19.624 16.947,15.196 		"/>
	</g>
	<g>
		<path fill="#FFFFFF" d="M30.165,15.644c0,0-0.541-4.173-0.543-4.262c-0.004-0.105,0.734,0.628,0.734,0.628l0.572,0.754
			l0.469,0.688c0,0,0.184,0.307,0.316,0.544c0.148,0.268,0.172,0.452,0.188,0.495C31.942,14.581,30.165,15.644,30.165,15.644z"/>
	</g>
</g>
</svg>
