<?xml version="1.0" encoding="utf-8"?>
<!-- Generator: Adobe Illustrator 15.0.2, SVG Export Plug-In . SVG Version: 6.00 Build 0)  -->
<!DOCTYPE svg PUBLIC "-//W3C//DTD SVG 1.1//EN" "http://www.w3.org/Graphics/SVG/1.1/DTD/svg11.dtd">
<svg version="1.1" id="Layer_1_copy" xmlns="http://www.w3.org/2000/svg" xmlns:xlink="http://www.w3.org/1999/xlink" x="0px"
	 y="0px" width="40px" height="40px" viewBox="0 0 40 40" enable-background="new 0 0 40 40" xml:space="preserve">
<path fill="#39396B" d="M27.094,13.288c0.025,0.277,0.016,0.576,0,0.892C27.094,13.883,27.094,13.585,27.094,13.288z"/>
<path d="M39.408,16.926c0,0.514,0,1.028,0,1.542c-0.032,0.564-0.077,1.161-0.077,1.777c0,2.271,0.306,4.315-0.996,4.785
	c-1.196,0.429-2.367-0.164-3.759,0.075c-0.376,0.521-0.491,1.305-0.844,1.852c0.233,1.277,2.729,1.63,2.455,3.626
	c-0.152,1.11-2.037,2.512-2.914,3.394c-1.019,1.021-2.289,2.836-3.529,2.78c-1.486-0.067-1.789-1.866-2.988-2.47
	c-0.73,0.24-1.312,0.635-2.07,0.849c-0.203,1.177,0.36,2.784-0.229,3.626c-0.581,0.825-2.809,0.616-4.294,0.616
	c-1.29,0-3.536,0.392-4.602-0.229c-1.159-0.678-0.655-2.426-0.767-4.09c-0.64-0.334-1.385-0.56-1.994-0.927
	c-1.282,0.446-1.522,2.661-3.45,2.394c-1.084-0.149-2.234-1.858-3.221-2.854c-0.548-0.553-1.029-0.959-1.533-1.466
	c-0.615-0.618-1.48-1.231-1.304-2.394c0.217-1.433,1.905-1.636,2.455-2.933c-0.25-0.649-0.547-1.249-0.768-1.929
	c-1.421-0.129-3.19,0.34-3.987-0.462c-0.675-0.681-0.46-2.859-0.46-4.166c0-1.418-0.359-3.288,0.153-4.475
	c0.659-1.526,2.682-0.711,4.449-0.925c0.376-0.495,0.508-1.237,0.843-1.774c-0.24-1.276-2.8-1.706-2.53-3.704
	c0.147-1.099,1.9-2.299,2.837-3.24c1.052-1.059,2.219-2.989,3.604-2.931c1.476,0.061,2.083,2.221,3.297,2.7
	c0.631-0.188,1.16-0.479,1.764-0.695c0.087-2.231-0.524-4.379,1.534-4.627c1.315-0.159,6.498-0.296,7.514,0.154
	c1.381,0.611,0.803,2.612,0.922,4.552c0.433,0.388,1.146,0.493,1.688,0.771c1.308-0.231,1.719-2.907,3.758-2.623
	c1.017,0.142,2.633,2.186,3.373,2.931c1.007,1.012,2.764,2.276,2.76,3.473c-0.004,1.584-1.973,1.973-2.605,3.24
	c0.248,0.649,0.547,1.25,0.77,1.928c2.021,0.151,4.08-0.54,4.602,1.081C39.333,16.401,39.383,16.658,39.408,16.926z M35.805,21.712
	c0-1.157,0-2.314,0-3.472c-1.359-0.108-2.812,0.249-3.604-0.309c-0.608-0.426-0.877-1.872-1.149-2.545
	c-0.343-0.842-1.131-1.958-1.075-2.7c0.049-0.627,0.619-1.087,1.075-1.544c0.328-0.332,1.312-1.204,1.3-1.388
	c-0.008-0.201-1.002-0.933-1.225-1.157C30.59,8.059,30.271,7.622,29.9,7.362c-0.961,0.572-1.573,2.512-3.146,2.469
	c-0.568-0.016-1.568-0.676-2.146-0.926c-0.729-0.314-1.588-0.396-2.301-0.771c-1.349-0.711-0.668-2.732-0.844-4.243
	c-1.151,0-2.301,0-3.453,0c0,0.077,0,0.154,0,0.231c-0.172,1.4,0.486,3.232-0.843,3.935c-0.63,0.333-1.486,0.379-2.223,0.694
	c-0.648,0.28-1.458,0.855-1.994,0.926c-1.793,0.242-2.289-1.787-3.22-2.314c-0.938,0.752-1.782,1.6-2.53,2.545
	c0.492,0.877,2.065,1.264,2.3,2.545c0.206,1.123-0.602,1.867-0.998,2.778c-0.3,0.692-0.396,1.641-0.766,2.237
	c-0.788,1.271-2.542,0.585-3.987,0.771c0,1.158,0,2.312,0,3.472c1.312,0.047,3.091-0.277,3.757,0.693
	c0.41,0.596,0.476,1.654,0.77,2.392c0.318,0.799,0.978,1.465,1.073,2.16c0.251,1.835-1.804,2.129-2.147,3.243
	c0.332,0.308,0.687,0.611,1.227,1.154c0.243,0.244,0.958,1.246,1.227,1.23c0.142-0.004,0.739-0.827,1.073-1.154
	c0.334-0.328,0.904-0.854,1.303-0.928c1.188-0.212,2.043,0.746,3.068,1.158c0.784,0.314,2.118,0.501,2.53,1.002
	c0.587,0.718,0.316,2.111,0.382,3.473c1.177,0,2.353,0,3.529,0c0.057-1.418-0.205-2.867,0.459-3.551
	c0.6-0.609,1.852-0.641,2.684-1.003c0.823-0.354,1.801-1.169,2.531-1.151c0.572,0.01,1.178,0.562,1.533,0.924
	c0.372,0.373,0.995,1.244,1.227,1.23c0.148-0.004,1.021-1.023,1.229-1.23c0.532-0.537,0.92-0.922,1.147-1.312
	c-0.438-0.809-1.922-1.202-2.146-2.393c-0.229-1.2,0.677-1.93,1.072-2.934c0.279-0.701,0.385-1.938,0.846-2.468
	C32.807,21.467,34.596,21.77,35.805,21.712z"/>
<path fill="#34669A" d="M18.007,3.854c10.188-1.1,18.664,6.607,17.892,17.477c-0.553,7.793-6.709,14.135-14.424,14.823
	C11.19,37.064,2.899,29.102,3.717,18.396c0.497-6.505,4.638-11.273,9.571-13.423C14.657,4.375,16.367,4.026,18.007,3.854z
	 M19.947,30.421c5.417-0.078,10.261-4.729,10.261-10.489c0-5.809-4.487-10.839-11.094-10.345c-5.642,0.422-9.709,4.418-9.709,10.345
	C9.404,26.348,14.575,30.495,19.947,30.421z"/>
<path d="M19.172,14.27c3.657-0.391,6.698,2.353,6.42,6.225c-0.197,2.776-2.408,5.035-5.177,5.278
	c-3.688,0.326-6.665-2.514-6.371-6.324c0.179-2.316,1.664-4.015,3.436-4.78C17.971,14.456,18.584,14.333,19.172,14.27z
	 M19.869,23.73c1.943-0.026,3.684-1.686,3.684-3.734c0-2.069-1.611-3.861-3.982-3.685c-2.025,0.15-3.484,1.574-3.484,3.685
	C16.086,22.281,17.942,23.76,19.869,23.73z"/>
<polyline fill="#34669A" points="34.105,27.633 35.255,28.588 35.656,28.953 35.854,29.211 36.047,29.5 36.143,29.809 
	36.206,30.218 36.188,30.583 36.093,30.921 35.947,31.215 35.633,31.669 35.286,32.07 34.775,32.587 34.322,33.008 33.96,33.336 
	33.424,33.829 33.066,34.189 32.581,34.725 32.15,35.198 31.684,35.684 31.227,36.1 30.794,36.417 30.375,36.656 29.916,36.753 
	29.744,36.757 29.641,36.748 29.422,36.748 29.189,36.636 28.932,36.502 28.698,36.331 28.438,36.078 28.154,35.739 27.904,35.407 
	27.628,35.048 27.309,34.691 27.128,34.532 "/>
<ellipse fill="#FFFFFF" stroke="#FFFFFF" stroke-width="0.25" stroke-miterlimit="10" cx="19.772" cy="20.28" rx="12.378" ry="12.427"/>
<path fill="#34669A" d="M14.159,21.41c-0.076-11.204,12.935-11.001,14.505-9.992c0.564,0.519,2.188,2.746,2.188,2.882
	c0,0.136-3.058,0.39-4.947,0.401c-2.504,0.015-5.467,0.802-6.926,2.559c-0.946,1.139-1.96,2.106-2.511,3.565
	c-1.394,3.694-1.391,8.059-1.391,8.059S14.167,22.473,14.159,21.41z"/>
<g>
	<polygon fill="#FFFFFF" points="26.549,15.003 26.005,10.742 27.302,10.511 27.846,14.771 	"/>
</g>
<g>
	<polygon fill="#FFFFFF" points="23.738,15.421 23.008,10.992 24.294,10.694 25.027,15.124 	"/>
</g>
<g>
	<polygon fill="#FFFFFF" points="21.236,15.98 20.309,11.814 21.577,11.418 22.505,15.586 	"/>
</g>
<g>
	<polygon fill="#FFFFFF" points="19.098,12.512 19.981,16.446 18.774,17.665 17.829,13.326 	"/>
</g>
<rect x="12.278" y="10.921" fill="#34669A" width="3.644" height="19.05"/>
<g>
	<polygon fill="#FFFFFF" points="16.601,14.301 17.712,18.78 17.03,19.66 15.933,15.233 	"/>
</g>
<g>
	<path fill="#FFFFFF" d="M29.152,15.679c0,0-0.541-4.172-0.543-4.261c-0.004-0.106,0.733,0.628,0.733,0.628l0.573,0.754l0.469,0.688
		c0,0,0.184,0.307,0.315,0.544c0.149,0.268,0.172,0.453,0.188,0.495C30.93,14.617,29.152,15.679,29.152,15.679z"/>
</g>
</svg>
