<?xml version="1.0" encoding="utf-8"?>
<!-- Generator: Adobe Illustrator 15.0.2, SVG Export Plug-In . SVG Version: 6.00 Build 0)  -->
<!DOCTYPE svg PUBLIC "-//W3C//DTD SVG 1.1//EN" "http://www.w3.org/Graphics/SVG/1.1/DTD/svg11.dtd">
<svg version="1.1" id="Layer_1" xmlns="http://www.w3.org/2000/svg" xmlns:xlink="http://www.w3.org/1999/xlink" x="0px" y="0px"
	 width="612px" height="792px" viewBox="0 0 612 792" enable-background="new 0 0 612 792" xml:space="preserve">
<polyline fill="#34669A" points="364.735,530.929 417.096,481.022 486.354,553.689 433.991,603.596 "/>
<line fill="none" x1="314.493" y1="303.642" x2="314.493" y2="303.646"/>
<polyline fill="#FFFFFF" points="355.091,362.419 355.092,358.291 360.126,358.292 360.125,362.419 "/>
<polyline fill="#FFFFFF" points="396.57,378.567 396.57,372.12 404.435,372.12 404.434,378.569 "/>
<polyline fill="#FFFFFF" points="397.021,391.419 397.021,387.291 402.056,387.292 402.055,391.419 "/>
<polyline fill="#FFFFFF" points="335.103,354.094 335.104,347.646 342.969,347.646 342.968,354.094 "/>
<path fill="#34669A" d="M295.332,251.573c108.482-11.593,198.726,69.791,190.5,184.593
	c-5.893,82.299-71.459,149.312-153.581,156.534c-109.471,9.628-197.736-74.487-189.023-187.546
	c5.287-68.684,49.353-119.056,101.895-141.769C259.683,257.096,277.906,253.433,295.332,251.573z M316.006,532.154
	c57.697-0.812,109.279-49.914,109.279-110.756c0-61.359-47.817-114.492-118.141-109.279c-60.059,4.46-103.372,46.68-103.372,109.279
	C203.773,489.165,258.826,532.966,316.006,532.154z"/>
<ellipse fill="none" stroke="#1D1D1B" stroke-width="20" stroke-miterlimit="10" cx="314.583" cy="421.973" rx="110.648" ry="110.182"/>
<line fill="none" stroke="#1D1D1B" stroke-width="20" stroke-miterlimit="10" x1="288.5" y1="374.569" x2="288.5" y2="485.449"/>
<g>
	<g>
		<g>
			<g>
				<path fill="#1D1D1B" d="M361.714,374.235l4.035,6.665c3.505,0.071,7.008,0.508,10.401,1.391l-3.053-6.636l-0.802-0.388
					c-0.274-0.146-0.475-0.118-0.716-0.185c-0.462-0.089-0.927-0.169-1.393-0.242c-0.931-0.149-1.868-0.267-2.809-0.358
					C365.499,374.296,363.606,374.221,361.714,374.235z"/>
				<path fill="#1D1D1B" d="M344.989,376.604l5.243,6.098c3.408-0.82,6.878-1.396,10.375-1.657l-4.444-6.5
					C352.392,374.925,348.654,375.636,344.989,376.604z"/>
				<path fill="#1D1D1B" d="M329.148,382.497l6.318,5.359c3.188-1.458,6.464-2.729,9.809-3.779l-5.612-5.872
					C336.071,379.415,332.56,380.856,329.148,382.497z"/>
				<path fill="#1D1D1B" d="M314.614,391.065l7.229,4.486c2.896-1.976,5.904-3.785,9.004-5.421l-6.637-5.085
					C320.9,386.871,317.693,388.881,314.614,391.065z"/>
				<path fill="#1D1D1B" d="M301.78,401.953l7.955,3.503c2.5-2.459,5.159-4.754,7.94-6.889l-7.489-4.174
					C307.235,396.744,304.421,399.264,301.78,401.953z"/>
				<path fill="#1D1D1B" d="M291.346,415.123l8.482,2.425c1.883-2.958,4.029-5.744,6.358-8.363l-8.151-3.158
					C295.58,408.884,293.323,411.914,291.346,415.123z"/>
				<path fill="#1D1D1B" d="M284.811,430.577l8.793,1.261c0.799-3.414,2.069-6.709,3.665-9.828l-8.609-2.052
					C286.985,423.335,285.654,426.895,284.811,430.577z"/>
			</g>
		</g>
	</g>
</g>
</svg>
