<?xml version="1.0" encoding="utf-8"?>
<!-- Generator: Adobe Illustrator 15.0.2, SVG Export Plug-In . SVG Version: 6.00 Build 0)  -->
<!DOCTYPE svg PUBLIC "-//W3C//DTD SVG 1.1//EN" "http://www.w3.org/Graphics/SVG/1.1/DTD/svg11.dtd">
<svg version="1.1" id="Layer_1_copy" xmlns="http://www.w3.org/2000/svg" xmlns:xlink="http://www.w3.org/1999/xlink" x="0px"
	 y="0px" width="40px" height="40px" viewBox="0 0 40 40" enable-background="new 0 0 40 40" xml:space="preserve">
<path fill="#39396B" d="M27.094,13.288c0.025,0.277,0.016,0.576,0,0.892C27.094,13.883,27.094,13.585,27.094,13.288z"/>
<path stroke="#FFFFFF" stroke-width="0.5" stroke-miterlimit="10" d="M39.408,16.926c0,0.514,0,1.028,0,1.542
	c-0.032,0.564-0.077,1.161-0.077,1.777c0,2.271,0.306,4.315-0.996,4.785c-1.196,0.429-2.367-0.164-3.759,0.075
	c-0.376,0.521-0.491,1.305-0.844,1.852c0.232,1.277,2.729,1.63,2.455,3.626c-0.152,1.11-2.037,2.512-2.914,3.394
	c-1.02,1.021-2.289,2.836-3.529,2.78c-1.486-0.067-1.789-1.866-2.988-2.47c-0.73,0.24-1.312,0.635-2.07,0.849
	c-0.203,1.177,0.36,2.784-0.229,3.626c-0.581,0.825-2.809,0.616-4.294,0.616c-1.29,0-3.536,0.392-4.602-0.229
	c-1.159-0.678-0.655-2.426-0.767-4.09c-0.64-0.334-1.385-0.56-1.994-0.927c-1.282,0.446-1.522,2.661-3.45,2.394
	c-1.084-0.148-2.234-1.857-3.221-2.854c-0.548-0.553-1.029-0.959-1.533-1.466c-0.615-0.618-1.48-1.231-1.304-2.394
	c0.217-1.434,1.905-1.637,2.455-2.934C5.497,26.23,5.2,25.63,4.979,24.95c-1.421-0.13-3.19,0.34-3.987-0.462
	c-0.675-0.682-0.46-2.859-0.46-4.166c0-1.418-0.359-3.288,0.153-4.475c0.659-1.526,2.682-0.711,4.449-0.925
	c0.376-0.495,0.508-1.237,0.843-1.774c-0.24-1.276-2.8-1.706-2.53-3.704c0.147-1.099,1.9-2.299,2.837-3.24
	c1.052-1.059,2.219-2.989,3.604-2.931c1.476,0.061,2.083,2.221,3.297,2.7c0.631-0.188,1.16-0.479,1.764-0.695
	c0.087-2.231-0.524-4.379,1.534-4.627c1.315-0.159,6.498-0.296,7.514,0.154c1.381,0.611,0.803,2.612,0.922,4.552
	c0.433,0.388,1.146,0.493,1.688,0.771c1.308-0.231,1.719-2.907,3.758-2.623c1.017,0.142,2.633,2.186,3.373,2.931
	c1.007,1.012,2.764,2.276,2.76,3.473c-0.004,1.584-1.973,1.973-2.605,3.24c0.248,0.649,0.547,1.25,0.771,1.928
	c2.021,0.151,4.08-0.54,4.603,1.081C39.333,16.401,39.383,16.658,39.408,16.926z M35.805,21.712c0-1.157,0-2.314,0-3.472
	c-1.359-0.108-2.812,0.249-3.604-0.309c-0.608-0.426-0.877-1.872-1.149-2.545c-0.343-0.842-1.131-1.958-1.075-2.7
	c0.049-0.627,0.619-1.087,1.075-1.544c0.328-0.332,1.312-1.204,1.3-1.388c-0.008-0.201-1.002-0.933-1.225-1.157
	C30.59,8.059,30.271,7.622,29.9,7.362c-0.961,0.572-1.573,2.512-3.146,2.469c-0.568-0.016-1.568-0.676-2.146-0.926
	c-0.729-0.314-1.588-0.396-2.301-0.771c-1.349-0.711-0.668-2.732-0.844-4.243c-1.151,0-2.301,0-3.453,0c0,0.077,0,0.154,0,0.231
	c-0.172,1.4,0.486,3.232-0.843,3.935c-0.63,0.333-1.486,0.379-2.223,0.694c-0.648,0.28-1.458,0.855-1.994,0.926
	c-1.793,0.242-2.289-1.787-3.22-2.314c-0.938,0.752-1.782,1.6-2.53,2.545c0.492,0.877,2.065,1.264,2.3,2.545
	c0.206,1.123-0.602,1.867-0.998,2.778c-0.3,0.692-0.396,1.641-0.766,2.237c-0.788,1.271-2.542,0.585-3.987,0.771
	c0,1.158,0,2.312,0,3.472c1.312,0.047,3.091-0.277,3.757,0.693c0.41,0.596,0.476,1.654,0.77,2.392
	c0.318,0.799,0.978,1.465,1.073,2.16c0.251,1.835-1.804,2.129-2.147,3.243c0.332,0.308,0.687,0.611,1.227,1.154
	c0.243,0.244,0.958,1.246,1.227,1.229c0.142-0.004,0.739-0.827,1.073-1.153c0.334-0.328,0.904-0.854,1.303-0.929
	c1.188-0.212,2.043,0.746,3.068,1.158c0.784,0.313,2.118,0.501,2.53,1.002c0.587,0.718,0.316,2.11,0.382,3.473
	c1.177,0,2.353,0,3.529,0c0.057-1.418-0.205-2.866,0.459-3.551c0.6-0.608,1.852-0.642,2.684-1.003
	c0.823-0.354,1.801-1.169,2.531-1.15c0.572,0.01,1.178,0.562,1.533,0.924c0.372,0.373,0.995,1.244,1.227,1.229
	c0.148-0.004,1.021-1.022,1.229-1.229c0.532-0.537,0.92-0.922,1.147-1.312c-0.438-0.809-1.922-1.202-2.146-2.393
	c-0.229-1.2,0.677-1.931,1.072-2.935c0.279-0.7,0.385-1.938,0.846-2.468C32.807,21.467,34.596,21.77,35.805,21.712z"/>
<path fill="#34669A" stroke="#FFFFFF" stroke-width="0.25" stroke-miterlimit="10" d="M18.236,6.385
	c8.813-0.952,16.146,5.717,15.476,15.124c-0.476,6.743-5.801,12.232-12.476,12.828C12.34,35.124,5.167,28.233,5.875,18.97
	c0.431-5.629,4.013-9.755,8.28-11.616C15.339,6.835,16.818,6.534,18.236,6.385z M19.915,29.375c4.685-0.067,8.877-4.091,8.877-9.076
	c0-5.027-3.882-9.38-9.598-8.953c-4.88,0.365-8.398,3.823-8.398,8.953C10.794,25.85,15.268,29.439,19.915,29.375z"/>
<path d="M19.172,14.27c3.657-0.391,6.698,2.353,6.42,6.225c-0.197,2.776-2.408,5.035-5.177,5.278
	c-3.688,0.326-6.665-2.515-6.371-6.324c0.179-2.316,1.664-4.015,3.436-4.78C17.971,14.456,18.584,14.333,19.172,14.27z
	 M19.869,23.73c1.943-0.026,3.684-1.687,3.684-3.734c0-2.069-1.611-3.861-3.982-3.685c-2.025,0.15-3.484,1.574-3.484,3.685
	C16.086,22.281,17.942,23.76,19.869,23.73z"/>
<polyline fill="#34669A" stroke="#FFFFFF" stroke-width="0.25" stroke-miterlimit="10" points="32.334,26.167 35.255,28.588 
	35.656,28.953 35.854,29.211 36.047,29.5 36.143,29.809 36.206,30.218 36.188,30.583 36.093,30.921 35.947,31.215 35.633,31.669 
	35.286,32.07 34.775,32.587 34.322,33.008 33.96,33.336 33.424,33.829 33.066,34.189 32.581,34.725 32.15,35.198 31.684,35.684 
	31.227,36.1 30.794,36.417 30.375,36.656 29.916,36.753 29.744,36.757 29.641,36.748 29.422,36.748 29.189,36.636 28.932,36.502 
	28.698,36.331 28.438,36.078 28.154,35.739 27.904,35.407 27.628,35.048 27.309,34.691 25.609,33.06 "/>
<ellipse fill="#FFFFFF" stroke="#FFFFFF" stroke-width="0.25" stroke-miterlimit="10" cx="19.772" cy="20.439" rx="12.378" ry="12.606"/>
<g>
	<path fill="#34669A" d="M15.119,21.586c-0.067-9.915,11.448-9.735,12.836-8.843c0.5,0.459,1.936,2.43,1.936,2.551
		c0,0.12-2.705,0.345-4.378,0.354c-2.216,0.013-4.838,0.709-6.129,2.264c-0.837,1.008-1.735,1.864-2.223,3.155
		c-1.233,3.27-1.23,7.131-1.23,7.131S15.126,22.527,15.119,21.586z"/>
	<g>
		<polygon fill="#FFFFFF" points="26.083,15.916 25.602,12.146 26.75,11.941 27.23,15.711 		"/>
	</g>
	<g>
		<polygon fill="#FFFFFF" points="23.596,16.286 22.949,12.367 24.088,12.103 24.736,16.023 		"/>
	</g>
	<g>
		<polygon fill="#FFFFFF" points="21.382,16.781 20.561,13.094 21.684,12.743 22.504,16.432 		"/>
	</g>
	<g>
		<polygon fill="#FFFFFF" points="19.489,13.712 20.271,17.193 19.203,18.272 18.366,14.432 		"/>
	</g>
	<rect x="13.454" y="12.304" fill="#34669A" width="3.225" height="16.858"/>
	<g>
		<polygon fill="#FFFFFF" points="17.28,15.295 18.263,19.259 17.659,20.037 16.689,16.12 		"/>
	</g>
	<g>
		<path fill="#FFFFFF" d="M28.388,16.515c0,0-0.479-3.693-0.481-3.771c-0.002-0.094,0.649,0.556,0.649,0.556l0.509,0.667
			l0.413,0.609c0,0,0.163,0.271,0.279,0.481c0.133,0.237,0.151,0.401,0.167,0.438C29.96,15.575,28.388,16.515,28.388,16.515z"/>
	</g>
</g>
</svg>
