<?xml version="1.0" encoding="utf-8"?>
<!-- Generator: Adobe Illustrator 15.0.2, SVG Export Plug-In . SVG Version: 6.00 Build 0)  -->
<!DOCTYPE svg PUBLIC "-//W3C//DTD SVG 1.1//EN" "http://www.w3.org/Graphics/SVG/1.1/DTD/svg11.dtd">
<svg version="1.1" id="Layer_1_copy" xmlns="http://www.w3.org/2000/svg" xmlns:xlink="http://www.w3.org/1999/xlink" x="0px"
	 y="0px" width="40px" height="40px" viewBox="0 0 40 40" enable-background="new 0 0 40 40" xml:space="preserve">
<ellipse fill="#FFFFFF" stroke="#FFFFFF" stroke-width="0.25" stroke-miterlimit="10" cx="20" cy="20.094" rx="15.833" ry="15.75"/>
<polyline fill="#34669A" stroke="#FFFFFF" stroke-miterlimit="10" points="31.352,34.262 34.592,31.143 39.5,36.381 36.258,39.5 "/>
<path fill="#34669A" stroke="#FFFFFF" stroke-miterlimit="10" d="M17.826,0.625c12.309-1.318,22.549,7.936,21.615,20.989
	c-0.668,9.358-8.108,16.979-17.426,17.8C9.593,40.51-0.421,30.945,0.567,18.089c0.6-7.811,5.6-13.538,11.562-16.121
	C13.781,1.253,15.849,0.836,17.826,0.625z M20.229,37.139c8.789-0.125,16.644-7.619,16.644-16.907
	c0-9.366-7.283-17.477-17.994-16.68C9.731,4.233,3.135,10.677,3.135,20.232C3.135,30.576,11.52,37.261,20.229,37.139z"/>
<path stroke="#FFFFFF" stroke-miterlimit="10" d="M18.104,3.108c10.792-1.157,19.769,6.957,18.951,18.402
	c-0.586,8.204-7.107,14.885-15.277,15.604c-10.889,0.96-19.669-7.427-18.803-18.696C3.5,11.571,7.883,6.549,13.11,4.285
	C14.558,3.658,16.371,3.293,18.104,3.108z M20.208,34.536c7.573-0.106,14.345-6.565,14.345-14.569
	c0-8.071-6.277-15.061-15.507-14.375c-7.884,0.586-13.569,6.14-13.569,14.375C5.477,28.881,12.702,34.643,20.208,34.536z"/>
<g>
	<g>
		<g>
			<g>
				<path fill="#1D1D1B" d="M28.571,10.687l0.681,1.463c0.594,0.015,1.186,0.111,1.76,0.305l-0.516-1.457l-0.137-0.085
					c-0.046-0.033-0.08-0.026-0.121-0.041c-0.077-0.02-0.156-0.038-0.234-0.054c-0.158-0.031-0.316-0.058-0.476-0.078
					C29.21,10.7,28.891,10.685,28.571,10.687z"/>
				<path fill="#1D1D1B" d="M25.743,11.207l0.886,1.338c0.575-0.18,1.163-0.306,1.754-0.364l-0.751-1.427
					C26.994,10.838,26.362,10.995,25.743,11.207z"/>
				<path fill="#1D1D1B" d="M23.065,12.5l1.066,1.177c0.54-0.32,1.094-0.599,1.659-0.83l-0.949-1.289
					C24.235,11.824,23.641,12.141,23.065,12.5z"/>
				<path fill="#1D1D1B" d="M20.606,14.381l1.223,0.985c0.49-0.433,0.999-0.83,1.522-1.189l-1.122-1.116
					C21.671,13.461,21.128,13.902,20.606,14.381z"/>
				<path fill="#1D1D1B" d="M18.437,16.771l1.346,0.77c0.423-0.54,0.872-1.044,1.342-1.513l-1.266-0.916
					C19.359,15.628,18.883,16.182,18.437,16.771z"/>
				<path fill="#1D1D1B" d="M16.672,19.663l1.435,0.532c0.318-0.649,0.681-1.26,1.075-1.835l-1.378-0.693
					C17.389,18.293,17.007,18.958,16.672,19.663z"/>
				<path fill="#1D1D1B" d="M15.567,23.055l1.487,0.277c0.135-0.751,0.35-1.474,0.62-2.159l-1.456-0.45
					C15.935,21.465,15.71,22.246,15.567,23.055z"/>
			</g>
		</g>
	</g>
</g>
<rect x="11.86" y="9.065" fill="#1D1D1B" width="4.948" height="21.87"/>
</svg>
