<?xml version="1.0" encoding="utf-8"?>
<!-- Generator: Adobe Illustrator 15.0.2, SVG Export Plug-In . SVG Version: 6.00 Build 0)  -->
<!DOCTYPE svg PUBLIC "-//W3C//DTD SVG 1.1//EN" "http://www.w3.org/Graphics/SVG/1.1/DTD/svg11.dtd">
<svg version="1.1" id="Layer_1_copy" xmlns="http://www.w3.org/2000/svg" xmlns:xlink="http://www.w3.org/1999/xlink" x="0px"
	 y="0px" width="40px" height="40px" viewBox="0 0 40 40" enable-background="new 0 0 40 40" xml:space="preserve">
<ellipse fill="#FFFFFF" stroke="#FFFFFF" stroke-width="0.25" stroke-miterlimit="10" cx="19.772" cy="20.28" rx="12.378" ry="12.427"/>
<path fill="#39396B" d="M27.094,13.288c0.025,0.277,0.016,0.576,0,0.892C27.094,13.883,27.094,13.585,27.094,13.288z"/>
<g>
	<g>
		<path d="M39.408,16.926c0,0.514,0,1.028,0,1.542c-0.032,0.564-0.077,1.161-0.077,1.777c0,2.271,0.306,4.316-0.996,4.785
			c-1.196,0.429-2.367-0.164-3.759,0.075c-0.376,0.521-0.491,1.305-0.843,1.852c0.235,1.278,2.729,1.63,2.454,3.626
			c-0.152,1.11-2.037,2.512-2.914,3.394c-1.016,1.021-2.288,2.835-3.529,2.78c-1.486-0.067-1.789-1.866-2.988-2.47
			c-0.731,0.241-1.312,0.635-2.071,0.849c-0.202,1.177,0.361,2.784-0.229,3.626c-0.581,0.825-2.807,0.616-4.294,0.616
			c-1.29,0-3.536,0.392-4.602-0.23c-1.159-0.677-0.655-2.426-0.767-4.09c-0.64-0.333-1.385-0.559-1.994-0.926
			c-1.282,0.446-1.522,2.661-3.45,2.393c-1.084-0.151-2.234-1.86-3.221-2.855c-0.548-0.553-1.029-0.959-1.533-1.466
			c-0.615-0.618-1.48-1.234-1.304-2.391c0.217-1.433,1.905-1.636,2.455-2.933c-0.25-0.649-0.547-1.249-0.768-1.929
			c-1.421-0.129-3.19,0.34-3.987-0.462c-0.675-0.68-0.46-2.859-0.46-4.166c0-1.418-0.359-3.288,0.153-4.475
			c0.659-1.526,2.682-0.711,4.449-0.925c0.376-0.495,0.508-1.237,0.843-1.774c-0.24-1.276-2.8-1.706-2.53-3.704
			c0.147-1.099,1.9-2.299,2.837-3.24c1.052-1.059,2.219-2.989,3.604-2.931c1.476,0.061,2.083,2.221,3.297,2.7
			c0.631-0.188,1.16-0.479,1.764-0.695c0.087-2.231-0.524-4.379,1.534-4.627c1.315-0.159,6.496-0.296,7.514,0.154
			c1.381,0.611,0.803,2.612,0.922,4.552c0.431,0.388,1.146,0.493,1.687,0.771c1.308-0.231,1.719-2.907,3.759-2.623
			c1.016,0.142,2.632,2.186,3.372,2.931c1.007,1.012,2.764,2.276,2.76,3.473c-0.004,1.584-1.973,1.973-2.605,3.24
			c0.248,0.649,0.546,1.25,0.767,1.928c2.02,0.151,4.08-0.54,4.601,1.081C39.333,16.401,39.383,16.658,39.408,16.926z
			 M35.804,21.712c0-1.158,0-2.314,0-3.472c-1.358-0.108-2.812,0.249-3.603-0.309c-0.608-0.426-0.877-1.872-1.149-2.545
			c-0.343-0.842-1.131-1.958-1.076-2.7c0.049-0.627,0.62-1.087,1.076-1.544c0.328-0.332,1.311-1.204,1.3-1.388
			c-0.008-0.201-1.002-0.933-1.225-1.157C30.59,8.059,30.272,7.622,29.9,7.362c-0.961,0.572-1.573,2.512-3.145,2.469
			c-0.569-0.016-1.569-0.676-2.146-0.926c-0.729-0.314-1.587-0.394-2.301-0.771c-1.348-0.711-0.668-2.732-0.843-4.243
			c-1.151,0-2.301,0-3.453,0c0,0.077,0,0.154,0,0.231c-0.172,1.4,0.486,3.232-0.843,3.935c-0.63,0.333-1.486,0.379-2.223,0.694
			c-0.648,0.28-1.458,0.855-1.994,0.926c-1.793,0.242-2.289-1.787-3.22-2.314C8.794,8.115,7.95,8.963,7.202,9.908
			c0.492,0.877,2.065,1.264,2.3,2.545c0.206,1.123-0.602,1.867-0.998,2.778c-0.3,0.692-0.396,1.641-0.766,2.237
			c-0.788,1.271-2.542,0.585-3.987,0.771c0,1.158,0,2.314,0,3.472c1.312,0.047,3.091-0.277,3.757,0.693
			c0.408,0.596,0.474,1.654,0.768,2.392c0.318,0.799,0.978,1.465,1.073,2.16c0.251,1.835-1.804,2.129-2.147,3.243
			c0.332,0.308,0.687,0.611,1.227,1.154c0.243,0.245,0.958,1.246,1.227,1.233c0.142-0.004,0.739-0.827,1.073-1.156
			c0.334-0.329,0.904-0.853,1.303-0.926c1.188-0.212,2.043,0.746,3.068,1.158c0.784,0.316,2.118,0.501,2.53,1.002
			c0.587,0.718,0.316,2.113,0.382,3.473c1.177,0,2.353,0,3.529,0c0.056-1.418-0.205-2.87,0.459-3.551
			c0.6-0.611,1.851-0.639,2.684-1.003c0.823-0.356,1.801-1.169,2.531-1.154c0.572,0.01,1.178,0.565,1.533,0.924
			c0.372,0.373,0.995,1.244,1.227,1.233c0.148-0.004,1.019-1.026,1.228-1.233c0.533-0.536,0.92-0.922,1.148-1.312
			c-0.438-0.809-1.921-1.202-2.146-2.393c-0.228-1.2,0.677-1.927,1.075-2.931c0.278-0.704,0.382-1.938,0.843-2.468
			C32.807,21.467,34.596,21.769,35.804,21.712z"/>
		<path fill="#34669A" d="M18.393,7.932c7.812-0.841,14.312,5.057,13.721,13.377c-0.425,5.965-5.147,10.818-11.062,11.345
			c-7.886,0.695-14.244-5.398-13.616-13.592c0.381-4.978,3.555-8.628,7.339-10.274C15.824,8.332,17.136,8.065,18.393,7.932z
			 M19.881,28.265c4.154-0.059,7.87-3.618,7.87-8.027c0-4.446-3.443-8.296-8.509-7.918c-4.326,0.323-7.445,3.381-7.445,7.918
			C11.797,25.148,15.761,28.323,19.881,28.265z"/>
		<polyline fill="#34669A" points="24.516,27.65 27.788,24.564 33.676,30.678 30.405,33.762 		"/>
	</g>
	<path d="M19.172,14.27c3.657-0.391,6.698,2.353,6.42,6.225c-0.197,2.776-2.408,5.035-5.177,5.279
		c-3.688,0.325-6.665-2.512-6.371-6.325c0.179-2.316,1.664-4.015,3.436-4.78C17.971,14.456,18.584,14.333,19.172,14.27z
		 M19.869,23.731c1.944-0.027,3.684-1.684,3.684-3.735c0-2.069-1.612-3.861-3.982-3.685c-2.025,0.15-3.484,1.574-3.484,3.685
		C16.086,22.281,17.942,23.76,19.869,23.731z"/>
</g>
</svg>
