<?xml version="1.0" encoding="utf-8"?>
<!-- Generator: Adobe Illustrator 15.0.2, SVG Export Plug-In . SVG Version: 6.00 Build 0)  -->
<!DOCTYPE svg PUBLIC "-//W3C//DTD SVG 1.1//EN" "http://www.w3.org/Graphics/SVG/1.1/DTD/svg11.dtd">
<svg version="1.1" id="Layer_1" xmlns="http://www.w3.org/2000/svg" xmlns:xlink="http://www.w3.org/1999/xlink" x="0px" y="0px"
	 width="612px" height="792px" viewBox="0 0 612 792" enable-background="new 0 0 612 792" xml:space="preserve">
<path fill="#39396B" d="M562,355.97c0.63,6.2,0.4,12.9,0,19.98C562,369.29,562,362.63,562,355.97z"/>
<path d="M562,355.97c0,6.66,0,13.32,0,19.98c-0.41,7.31-1,15.04-1,23.05c0,29.43,3.98,55.94-13,62c-15.6,5.57-30.86-2.11-49,1
	c-4.92,6.74-6.42,16.91-11,24c3.06,16.55,35.59,21.1,32,47c-1.99,14.38-26.55,32.55-38,44c-13.22,13.22-29.83,36.7-46,36
	c-19.4-0.84-23.37-24.19-39-32c-9.53,3.14-17.11,8.22-27,11c-2.64,15.25,4.7,36.09-3,47c-7.56,10.71-36.59,8-56,8
	c-16.81,0-46.1,5.07-60-3c-15.11-8.77-8.54-31.46-10-53c-8.36-4.31-18.07-7.26-26-12c-16.73,5.79-19.86,34.48-45,31
	c-14.15-1.96-29.13-24.13-42-37c-7.16-7.16-13.43-12.43-20-19c-8.02-8.02-19.29-16.01-17-31c2.84-18.57,24.83-21.2,32-38
	c-3.25-8.42-7.13-16.2-10-25c-18.54-1.67-41.6,4.4-52-6c-8.81-8.81-6-37.05-6-54c0-18.38-4.68-42.61,2-58
	c8.59-19.78,34.96-9.21,58-12c4.92-6.41,6.64-16.03,11-23c-3.12-16.54-36.5-22.11-33-48c1.92-14.25,24.8-29.8,37-42
	c13.73-13.73,28.94-38.75,47-38c19.24,0.79,27.16,28.79,43,35c8.22-2.45,15.12-6.22,23-9c1.13-28.94-6.84-56.77,20-60
	c17.15-2.06,84.74-3.83,98,2c18,7.92,10.47,33.86,12,59c5.64,5.03,14.94,6.39,22,10c17.05-3,22.42-37.68,49-34
	c13.28,1.84,34.34,28.34,44,38c13.11,13.11,36.05,29.49,36,45c-0.07,20.55-25.74,25.57-34,42c3.25,8.42,7.13,16.2,10,25
	c26.32,1.96,53.21-7,60,14C561.02,349.16,561.65,352.49,562,355.97z M515,418c0-15,0-30,0-45c-17.72-1.41-36.68,3.23-47-4
	c-7.9-5.54-11.42-24.27-15-33c-4.46-10.9-14.71-25.37-14-35c0.6-8.12,8.09-14.09,14-20c4.3-4.3,17.1-15.62,17-18
	c-0.11-2.6-13.09-12.09-16-15c-6.97-6.97-11.16-12.63-16-16c-12.49,7.42-20.51,32.55-41,32c-7.42-0.2-20.47-8.76-28-12
	c-9.48-4.07-20.71-5.11-30-10c-17.56-9.23-8.71-35.42-11-55c-15,0-30,0-45,0c0,1,0,2,0,3c-2.27,18.14,6.33,41.89-11,51
	c-8.22,4.32-19.39,4.9-29,9c-8.45,3.61-19.02,11.07-26,12c-23.38,3.12-29.85-23.16-42-30c-12.25,9.75-23.25,20.75-33,33
	c6.42,11.38,26.93,16.38,30,33c2.69,14.56-7.84,24.2-13,36c-3.92,8.97-5.17,21.27-10,29c-10.28,16.47-33.15,7.58-52,10
	c0,15,0,30,0,45c17.12,0.61,40.32-3.59,49,9c5.32,7.72,6.17,21.44,10,31c4.14,10.33,12.75,18.98,14,28c3.29,23.78-23.52,27.6-28,42
	c4.33,4.01,8.95,7.95,16,15c3.17,3.17,12.5,16.15,16,16c1.86-0.08,9.65-10.74,14-15c4.36-4.27,11.78-11.07,17-12
	c15.5-2.75,26.64,9.66,40,15c10.23,4.09,27.64,6.5,33,13c7.66,9.29,4.12,27.4,5,45c15.33,0,30.67,0,46,0c0.72-18.37-2.66-37.19,6-46
	c7.81-7.95,24.14-8.31,35-13c10.73-4.64,23.47-15.2,33-15c7.46,0.16,15.36,7.36,20,12c4.84,4.84,12.99,16.13,16,16
	c1.93-0.08,13.3-13.3,16-16c6.97-6.97,12-11.95,15-17c-5.74-10.5-25.05-15.6-28-31c-2.98-15.59,8.81-24.99,14-38
	c3.64-9.13,4.99-25.13,11-32C475.91,414.82,499.23,418.74,515,418z"/>
<path fill="#34669A" d="M293,281c73.46-7.85,134.57,47.26,129,125c-3.99,55.73-48.39,101.11-104,106
	c-74.13,6.52-133.9-50.44-128-127c3.58-46.51,33.42-80.62,69-96C268.86,284.74,281.2,282.26,293,281z M307,471
	c39.07-0.55,74-33.8,74-75c0-41.55-32.38-77.53-80-74c-40.67,3.02-70,31.61-70,74C231,441.89,268.28,471.55,307,471z"/>
<polyline fill="#34669A" points="323.073,452.413 358.53,418.618 422.354,485.583 386.896,519.378 "/>
<path d="M298.104,321.538c47.683-5.067,87.35,30.504,83.735,80.684c-2.589,35.971-31.409,65.261-67.506,68.419
	c-48.12,4.207-86.917-32.56-83.087-81.975c2.325-30.02,21.693-52.037,44.789-61.964
	C282.436,323.952,290.445,322.351,298.104,321.538z M307.192,444.175c25.358-0.354,48.035-21.815,48.035-48.408
	c0-26.82-21.02-50.043-51.931-47.765c-26.399,1.949-45.438,20.402-45.438,47.765C257.859,425.385,282.058,444.531,307.192,444.175z"
	/>
</svg>
